<svg width="71" height="71" viewBox="0 0 71 71" fill="none" xmlns="http://www.w3.org/2000/svg">
<path d="M37.9007 70.9006C56.1261 70.9006 70.9007 56.126 70.9007 37.9006C70.9007 19.6752 56.1261 4.90063 37.9007 4.90063C19.6753 4.90063 4.90067 19.6752 4.90067 37.9006C4.90067 56.126 19.6753 70.9006 37.9007 70.9006Z" fill="#076AAE"/>
<path d="M34.1077 52.8822H40.0842V37.8215H44.2677L44.7458 32.8013H40.0842C40.0842 32.8013 40.0842 30.8889 40.0842 29.9327C40.0842 28.7374 40.3232 28.2593 41.5185 28.2593C42.4747 28.2593 44.7458 28.2593 44.7458 28.2593V23C44.7458 23 41.2795 23 40.5623 23C36.1397 23 34.1077 25.032 34.1077 28.7374C34.1077 32.0842 34.1077 32.8013 34.1077 32.8013H31V37.9411H34.1077V52.8822Z" fill="white"/>
</svg>
