<svg width="71" height="71" viewBox="0 0 71 71" fill="none" xmlns="http://www.w3.org/2000/svg">
<path d="M37.9007 70.9006C56.1261 70.9006 70.9007 56.126 70.9007 37.9006C70.9007 19.6752 56.1261 4.90063 37.9007 4.90063C19.6753 4.90063 4.90067 19.6752 4.90067 37.9006C4.90067 56.126 19.6753 70.9006 37.9007 70.9006Z" fill="#076AAE"/>
<path d="M37.8216 25.7492C41.766 25.7492 42.2441 25.7492 43.798 25.8687C45.2323 25.9882 46.069 26.2273 46.5471 26.3468C47.2643 26.5859 47.7424 26.9444 48.2205 27.4226C48.6987 27.9007 49.0572 28.3788 49.2963 29.096C49.5354 29.5741 49.7744 30.4108 49.7744 31.8451C49.8939 33.399 49.8939 33.8771 49.8939 37.8215C49.8939 41.766 49.8939 42.2441 49.7744 43.798C49.6549 45.2323 49.4158 46.069 49.2963 46.5471C49.0572 47.2643 48.6987 47.7424 48.2205 48.2205C47.7424 48.6987 47.2643 49.0572 46.5471 49.2963C46.069 49.5354 45.2323 49.7744 43.798 49.7744C42.2441 49.8939 41.766 49.8939 37.8216 49.8939C33.8771 49.8939 33.399 49.8939 31.8451 49.7744C30.4108 49.6549 29.5741 49.4158 29.096 49.2963C28.3788 49.0572 27.9007 48.6987 27.4226 48.2205C26.7054 47.8619 26.4663 47.3838 26.2273 46.6667C25.9882 46.1886 25.7492 45.3519 25.7492 43.9175C25.6296 42.3636 25.6296 41.8855 25.6296 37.9411C25.6296 33.9966 25.6296 33.5185 25.7492 31.9646C25.8687 30.5303 26.1077 29.6936 26.2273 29.2155C26.4663 28.4983 26.8249 28.0202 27.303 27.5421C27.7811 27.064 28.2593 26.7054 28.9764 26.4663C29.4545 26.2273 30.2912 25.9882 31.7256 25.9882C33.2795 25.7492 33.7576 25.7492 37.8216 25.7492ZM37.8216 23C33.7576 23 33.2795 23 31.7256 23.1195C30.1717 23.2391 29.096 23.4781 28.1397 23.8367C27.1835 24.1953 26.3468 24.6734 25.5101 25.5101C24.6734 26.3468 24.1953 27.1835 23.8367 28.1397C23.4781 29.096 23.2391 30.1717 23.1195 31.7256C23 33.2795 23 33.8771 23 37.8215C23 41.8855 23 42.3636 23.1195 43.9175C23.2391 45.4714 23.4781 46.5471 23.8367 47.5034C24.1953 48.4596 24.6734 49.2963 25.5101 50.133C26.3468 50.9697 27.1835 51.4478 28.1397 51.8064C29.096 52.165 30.1717 52.404 31.7256 52.5236C33.2795 52.6431 33.8771 52.6431 37.8216 52.6431C41.8855 52.6431 42.3636 52.6431 43.9175 52.5236C45.4714 52.404 46.5471 52.165 47.5034 51.8064C48.4596 51.4478 49.2963 50.9697 50.133 50.133C50.9697 49.2963 51.4478 48.4596 51.8064 47.5034C52.165 46.5471 52.404 45.4714 52.5236 43.9175C52.6431 42.3636 52.6431 41.766 52.6431 37.8215C52.6431 33.7576 52.6431 33.2795 52.5236 31.7256C52.404 30.1717 52.165 29.096 51.8064 28.1397C51.4478 27.1835 50.9697 26.3468 50.133 25.5101C49.2963 24.6734 48.4596 24.1953 47.5034 23.8367C46.5471 23.4781 45.4714 23.2391 43.9175 23.1195C42.3636 23 41.766 23 37.8216 23Z" fill="white"/>
<path d="M37.8216 30.2913C33.6381 30.2913 30.1717 33.7576 30.1717 37.9411C30.1717 42.1246 33.6381 45.5909 37.8216 45.5909C42.0051 45.5909 45.4714 42.1246 45.4714 37.9411C45.3519 33.6381 42.0051 30.2913 37.8216 30.2913ZM37.8216 42.8418C35.0724 42.8418 32.9209 40.5707 32.9209 37.9411C32.9209 35.1919 35.1919 33.0404 37.8216 33.0404C40.5707 33.0404 42.7222 35.3115 42.7222 37.9411C42.7222 40.5707 40.4512 42.8418 37.8216 42.8418Z" fill="white"/>
<path d="M47.5034 29.9326C47.5034 30.8888 46.6667 31.7255 45.7104 31.7255C44.7542 31.7255 43.9175 30.8888 43.9175 29.9326C43.9175 28.9763 44.7542 28.1396 45.7104 28.1396C46.6667 28.1396 47.5034 28.9763 47.5034 29.9326Z" fill="white"/>
</svg>
