<svg width="71" height="71" viewBox="0 0 71 71" fill="none" xmlns="http://www.w3.org/2000/svg">
<path d="M37.9007 70.9006C56.1261 70.9006 70.9007 56.126 70.9007 37.9006C70.9007 19.6752 56.1261 4.90063 37.9007 4.90063C19.6753 4.90063 4.90067 19.6752 4.90067 37.9006C4.90067 56.126 19.6753 70.9006 37.9007 70.9006Z" fill="white"/>
<path d="M50.5872 26.0758C50.2286 25.3586 49.6309 25 48.7942 25C48.1966 25 47.5989 25.2391 47.5989 25.2391C47.3599 25.3586 29.5501 32.1717 22.2589 35.1599C21.6612 35.399 21.1831 35.7576 21.0636 36.2357C20.8245 36.9529 21.3026 37.67 21.7808 37.9091C23.5737 38.7458 27.3986 39.8215 28.5939 40.1801C28.9525 41.4949 30.3868 46.037 30.9845 47.9495C31.104 48.4276 31.5821 48.7862 32.2993 48.7862C32.4188 48.7862 32.4188 48.7862 32.4188 48.7862C32.5383 48.7862 32.7774 48.6667 32.8969 48.5471C33.0164 48.4276 33.0164 48.3081 33.0164 48.1886L33.375 42.6902C34.0922 43.1684 35.168 44.0051 36.2437 44.8418C38.5148 46.5152 41.2639 48.5471 42.6983 49.6229C43.2959 49.9815 43.774 50.2205 44.2521 50.2205C45.3279 50.2205 45.9255 49.2643 46.1646 48.4276C47.4794 43.5269 49.2723 34.3232 50.3481 28.7054L50.5872 27.5101C50.8262 26.9125 50.7067 26.4343 50.5872 26.0758ZM32.1797 41.3754L31.8212 46.2761C30.9845 43.6465 29.7892 39.5825 29.7892 39.5825L43.774 30.4983C43.774 30.4983 44.7303 29.9007 45.0888 29.7811C45.567 29.6616 45.6865 29.9007 45.5669 30.0202C45.2084 30.4983 43.6545 31.8131 43.6545 31.8131L32.5383 41.0168C32.2993 40.8973 32.1797 41.1364 32.1797 41.3754Z" fill="#076AAE"/>
</svg>
