<svg width="459" height="173" viewBox="0 0 459 173" fill="none" xmlns="http://www.w3.org/2000/svg">
<g clip-path="url(#clip0_76_174)">
<path d="M133.442 59.785C133.572 59.785 133.572 59.785 133.572 59.6553C133.183 59.785 133.053 59.9146 133.442 59.785Z" fill="#B72025"/>
<path d="M147.202 49.2803C147.332 49.2803 147.332 49.1506 147.462 49.1506C147.332 49.2803 147.202 49.2803 147.202 49.2803Z" fill="#B72025"/>
<path d="M219.115 27.4933C219.115 27.1042 219.115 26.8448 219.115 26.4558C219.115 12.3201 207.173 0 192.375 0C181.601 0 172.255 6.87331 168.101 15.8216C163.947 6.87331 154.601 0 143.827 0C129.159 0 117.087 12.3201 117.087 26.4558C117.087 26.8448 117.087 27.1042 117.087 27.4933C117.087 27.4933 116.308 36.0525 122.668 47.4648C124.745 46.4273 126.952 45.7789 129.418 45.2601C132.793 44.6117 136.298 44.2226 139.803 43.8336C141.361 43.7039 142.918 43.4445 144.476 43.3148C146.034 43.1852 146.683 43.0555 147.462 42.7961C152.394 41.4993 157.587 41.7586 161.351 45.5195C162.649 46.946 163.817 48.8913 164.337 50.7069C164.466 51.2256 164.596 51.7444 164.596 52.2631C166.413 52.5225 168.101 52.7819 169.918 53.1709C170.437 53.3006 170.957 53.4303 171.606 53.4303C170.048 53.4303 170.567 53.4303 173.034 53.56C173.683 53.6897 174.462 53.6897 175.111 53.8193C179.394 54.4678 184.587 56.024 186.793 59.6552C188.221 59.6552 189.649 59.7849 191.077 60.3036C194.062 61.2114 196.788 63.2864 198.087 66.1394C199.385 64.9723 200.553 63.8051 201.721 62.5083C220.543 44.3523 219.115 27.4933 219.115 27.4933Z" fill="#B72025"/>
<path d="M148.24 47.5946C148.37 47.4649 148.37 47.4649 148.5 47.3352C148.37 47.4649 148.24 47.4649 148.24 47.5946Z" fill="#B72025"/>
<path d="M193.284 71.0675C193.284 70.9378 193.284 70.6784 193.154 70.5487C193.154 70.2894 193.024 70.1597 192.894 70.03C192.894 69.9003 192.764 69.9003 192.764 69.7706C193.024 68.9925 193.024 68.0847 192.764 67.0472C192.505 65.8801 191.856 64.8426 190.687 64.3238C189.649 63.9348 188.611 64.0645 187.572 63.9348C186.014 63.8051 184.587 63.5457 183.029 63.5457C182.639 63.5457 182.25 63.5457 181.861 63.5457C181.861 63.027 181.861 62.6379 181.861 62.2489C181.861 61.3411 181.601 60.3036 180.952 59.6552C180.173 58.8771 179.135 58.7474 178.226 58.488C176.798 58.099 175.24 57.9693 173.683 57.7099C169.918 57.1912 166.154 56.5427 162.389 55.8943C160.572 55.6349 158.885 55.3756 157.067 55.1162C157.457 54.4678 157.846 53.8194 158.106 53.1709C158.625 52.2631 158.755 51.3553 158.495 50.1882C158.106 48.6319 157.067 46.8164 155.51 46.2976C154.212 45.9086 152.913 46.4273 151.615 46.6867C150.188 46.946 148.63 47.2054 147.202 47.4648C144.087 47.8538 141.101 48.2429 137.986 48.6319C135.13 49.021 132.144 49.4101 129.418 50.1882C123.707 52.0038 119.163 56.024 114.62 59.6552C109.817 63.4161 105.014 67.3066 100.341 71.1972C95.6683 74.958 90.8654 78.7189 86.3221 82.7391C84.7644 84.1657 83.2067 85.9813 81.5192 87.0188C79.5721 88.1859 76.976 88.1859 74.6394 88.1859C71.9135 88.1859 69.0577 88.0562 66.3317 88.1859C63.2163 88.3156 60.2308 88.4453 57.1154 88.575C50.8846 88.964 44.7837 89.4828 38.5529 90.1312C35.4375 90.3906 32.4519 90.7796 29.3365 91.1687C26.6106 91.5577 23.8846 91.8171 21.2885 92.5952C18.6923 93.3733 16.226 94.7999 14.5385 96.8748C12.7212 98.9498 11.5529 101.414 10.6442 104.008C8.95674 108.936 11.1635 113.993 11.9423 119.181C12.7212 124.368 12.4615 129.296 16.3558 132.927C18.3029 134.743 20.5096 136.299 22.8462 137.726C25.4423 139.282 28.1683 139.671 31.1539 139.282C33.75 138.893 36.2164 137.985 38.6827 137.466C41.6683 136.818 44.6539 136.169 47.6394 135.651C53.6106 134.484 59.5817 133.446 65.6827 132.538C68.5385 132.149 71.3942 131.63 74.3798 131.371C75.6779 131.241 76.8462 131.241 78.0144 131.63C79.3125 132.02 80.4808 132.668 81.649 133.316C86.8413 135.78 92.4231 137.337 98.2644 137.855C103.976 138.374 109.558 137.596 115.139 136.559C120.462 135.651 125.784 134.224 130.716 132.279C136.168 130.074 141.361 127.221 146.553 124.627C149.019 123.331 151.486 122.163 154.082 121.126C157.327 121.126 160.312 119.44 163.168 117.884C165.245 116.717 166.933 115.16 166.413 112.567C166.024 110.362 164.596 107.898 162.389 107.509C159.404 105.434 155.639 104.786 152.135 105.175C147.981 105.693 144.216 107.25 140.582 108.936C137.207 110.492 133.832 112.178 130.197 112.956C129.808 113.085 129.418 113.085 129.029 113.215C129.288 113.085 129.548 112.826 129.808 112.696C133.702 109.973 137.466 107.25 141.361 104.526C145.125 101.933 148.76 99.2092 152.654 96.7451C156.029 94.5405 159.534 92.9843 163.428 91.6874C167.192 90.3906 170.957 89.4828 174.721 88.1859C179.005 86.7594 183.288 85.0735 186.923 82.4798C188.481 81.4423 189.909 80.1454 191.207 78.7189C191.856 77.9408 192.505 77.1627 193.024 76.2549C193.543 75.2174 193.673 74.3096 193.673 73.4018C193.413 72.494 193.413 71.8456 193.284 71.0675ZM161.221 112.696C161.091 112.696 161.091 112.826 160.962 112.826C160.962 112.696 160.962 112.696 160.962 112.696C160.962 112.696 161.091 112.696 161.221 112.696ZM161.351 112.696C161.611 112.696 161.611 112.696 161.351 112.696V112.696ZM161.351 112.567C161.221 112.567 161.091 112.567 161.091 112.437C161.091 112.437 161.221 112.437 161.351 112.567ZM160.312 112.048C160.183 111.918 160.183 111.918 160.183 111.918C160.183 111.918 160.183 112.048 160.312 112.048ZM187.962 73.4018C187.962 73.5315 187.962 73.2721 187.962 73.2721C187.702 74.0502 187.183 74.569 186.534 75.2174C185.885 75.8658 185.236 76.5143 184.587 77.033C184.457 77.1627 183.808 77.6814 184.067 77.5517C183.678 77.8111 183.288 78.0705 182.899 78.3298C179.524 80.5345 175.889 81.961 171.995 83.2579C168.101 84.5547 164.207 85.5922 160.312 86.8891C156.159 88.3156 152.135 90.2609 148.5 92.7249C140.452 98.042 132.663 103.748 124.745 109.325C122.668 110.751 119.942 112.307 120.591 115.29C121.111 117.495 123.317 118.532 125.394 118.792C127.341 118.921 129.548 118.532 131.495 118.014C133.572 117.495 135.519 116.717 137.596 115.939C141.62 114.253 145.514 112.048 149.668 110.881C151.615 110.362 153.692 110.103 155.51 110.492C156.418 110.621 157.327 110.881 158.106 111.27C158.495 111.529 158.885 111.789 159.144 111.918C159.534 112.178 159.793 112.437 160.312 112.567H160.442C160.442 112.696 160.572 112.826 160.572 112.826C159.923 113.085 159.404 113.475 158.755 113.864C158.106 114.253 156.938 114.771 156.418 115.031C155.899 115.16 155.51 115.42 154.99 115.549C154.731 115.549 154.601 115.679 154.341 115.679C154.341 115.679 153.952 115.679 153.822 115.679C153.822 115.679 153.692 115.679 153.433 115.679C152.913 115.679 152.524 115.679 152.005 115.939C151.226 116.198 150.577 116.587 149.798 116.846C148.37 117.495 146.942 118.143 145.644 118.792C143.048 120.088 140.322 121.385 137.726 122.812C132.793 125.406 127.861 127.74 122.409 129.296C117.346 130.723 112.024 131.76 106.702 132.409C101.25 133.057 95.7981 132.668 90.6058 131.241C88.0096 130.593 85.5433 129.555 83.0769 128.388C80.4808 127.091 77.8846 125.924 74.899 126.054C71.7837 126.184 68.7981 126.702 65.6827 127.091C62.6971 127.481 59.8413 127.999 56.8558 128.388C50.8846 129.426 44.9135 130.463 38.9423 131.76C36.2164 132.279 33.6202 133.187 30.8942 133.835C29.8558 134.094 28.6875 134.224 27.649 134.094C26.4808 133.965 25.5721 133.446 24.6635 132.798C20.7692 130.334 16.875 127.221 15.1875 122.942C13.3702 118.532 13.5 113.475 14.5385 108.806C15.5769 104.526 17.2644 99.5982 21.8077 97.9123C24.1442 97.0045 26.7404 96.7451 29.2067 96.4858C32.1923 96.0967 35.1779 95.7077 38.1635 95.4483C44.2644 94.7999 50.3654 94.2811 56.4664 93.8921C59.5817 93.7624 62.5673 93.503 65.6827 93.3733C68.5385 93.2436 71.3942 93.3733 74.25 93.3733C77.1058 93.3733 80.0913 93.3733 82.6875 92.2062C84.8942 91.1687 86.7115 89.4828 88.399 87.7969C92.4231 83.9063 97.0962 80.4048 101.51 76.7736C106.312 72.8831 110.986 69.1222 115.788 65.2316C118.125 63.4161 120.462 61.4708 122.928 59.6552C125.005 58.099 127.082 56.5427 129.548 55.6349C132.144 54.7271 134.74 54.2084 137.466 53.949C140.452 53.56 143.438 53.1709 146.423 52.9116C147.981 52.7819 149.538 52.6522 151.096 52.2631C151.745 52.1334 152.264 52.0038 152.913 51.8741L152.784 52.0038C152.654 52.1334 152.524 52.2631 152.394 52.3928L152.264 52.5225C152.135 52.6522 151.875 52.7819 151.745 52.9116C151.356 53.1709 151.096 53.3006 150.707 53.56C150.317 53.6897 149.928 53.949 149.668 54.0787C149.538 54.0787 149.409 54.2084 149.279 54.2084C149.019 54.3381 149.019 54.3381 149.149 54.3381C148.111 54.8568 147.332 55.6349 147.332 56.8021C147.332 57.8396 148.111 59.1364 149.279 59.3958C154.341 60.1739 159.534 60.952 164.596 61.7301C167.192 62.1192 169.788 62.8973 172.385 63.027C173.163 63.027 173.942 63.1567 174.721 63.2864C172.904 64.4535 173.163 67.6957 175.5 68.0847C177.058 68.3441 178.486 68.6035 180.043 68.8628C180.433 68.8628 180.952 68.9925 181.341 68.9925C181.341 68.9925 181.861 68.9925 181.99 68.8628C182.51 68.8628 183.029 68.8628 183.548 68.8628C184.457 68.8628 185.365 68.9925 186.274 69.1222C186.404 69.1222 186.404 69.1222 186.534 69.1222C185.625 70.4191 186.534 72.3643 187.962 73.0128C187.962 73.2721 187.962 73.2721 187.962 73.4018ZM125.524 113.345C125.394 113.345 125.394 113.345 125.394 113.345C125.394 113.215 125.394 113.215 125.524 113.345Z" fill="white"/>
<path d="M168.231 72.8832C165.115 72.6238 161.87 72.105 158.755 71.716C157.197 71.5863 155.51 71.5863 153.952 71.9754C152.394 72.3644 150.837 73.2722 149.538 74.0503C144.087 77.2924 138.635 80.6643 133.313 84.1658C132.663 84.4251 132.144 85.0736 131.885 85.8517C131.885 85.9814 131.885 85.9814 131.885 86.111C131.885 86.2407 131.885 86.2407 131.885 86.3704C131.885 86.5001 131.885 86.5001 131.885 86.6298C131.885 86.7595 131.885 86.7595 131.885 86.8892C131.885 87.0188 131.885 87.0188 131.885 87.1485C131.885 87.2782 131.885 87.2782 131.885 87.4079C131.885 87.6673 132.014 87.797 132.144 88.0563C132.144 88.186 132.274 88.186 132.274 88.3157C132.274 88.3157 132.274 88.4454 132.404 88.4454C132.663 88.7047 132.793 88.8344 133.053 88.9641C133.702 89.3532 134.481 89.4829 135.26 89.2235C136.038 89.0938 136.817 88.8344 137.596 88.7047C137.726 88.7047 137.986 88.7048 138.115 88.5751C138.635 88.4454 139.024 88.3157 139.543 88.186H139.673C140.192 88.0563 140.582 87.9266 141.101 87.7969C141.361 87.6673 141.62 87.5376 141.88 87.4079C143.697 86.7595 145.514 85.9814 147.332 85.0736C150.707 83.3877 154.082 81.9611 157.846 80.9236C161.481 79.8862 165.245 78.9784 169.01 78.2002C170.308 77.9409 171.087 76.5143 170.957 75.2175C170.567 73.791 169.529 73.0128 168.231 72.8832Z" fill="white"/>
<path d="M133.962 127.351C142.01 123.46 149.798 118.792 158.365 116.198C160.183 115.55 162.519 114.642 162.649 112.567C162.649 111.27 161.74 110.103 160.702 109.454C156.938 106.731 152.005 106.99 147.591 108.417C140.062 110.881 134.091 115.55 126.043 115.809C124.745 115.809 122.928 115.16 123.188 113.864C123.317 113.345 123.837 112.956 124.226 112.696C131.495 107.639 138.635 102.581 145.904 97.5233C148.76 95.578 151.486 93.6328 154.471 91.9468C164.207 86.8891 175.76 86.2407 184.846 79.8861C186.534 78.719 189.519 75.9956 190.298 73.9206C190.688 72.7534 190.298 71.1972 189.26 70.9378C189 70.8082 188.74 70.8082 188.481 70.8082C189.26 70.03 189.649 69.1223 189 68.2145C188.351 67.177 186.923 66.9176 185.755 66.6582C182.51 66.2692 179.264 66.0098 176.149 65.2317C176.668 64.9723 177.447 64.4536 177.837 63.8052C178.096 63.2864 178.096 62.638 177.707 62.2489C177.577 62.1193 178.226 61.2115 178.096 61.2115C169.139 59.1365 159.144 57.9693 150.058 56.5428C151.745 55.8944 158.106 53.0413 154.99 50.3179C153.822 49.1507 152.005 49.2804 150.447 49.5398C146.683 50.0585 142.788 50.4476 139.024 50.9663C135.13 51.4851 131.236 51.8741 127.731 53.56C125.135 54.7272 122.798 56.5428 120.462 58.3584C113.322 63.9348 106.312 69.641 99.3029 75.3471C95.6683 78.3299 92.1635 81.183 88.6587 84.1657C86.0625 86.3704 83.8558 89.4828 80.4808 90.1313C76.4567 90.9094 71.9135 90.3906 67.7596 90.5203C63.3462 90.65 58.9327 90.9094 54.5192 91.1687C45.5625 91.8172 36.6058 92.5953 27.649 93.7624C24.274 94.1515 20.6394 94.7999 17.9135 97.0046C15.3173 99.0795 13.7596 102.451 12.7212 105.823C10.6442 112.696 10.5144 120.607 14.4087 126.573C16.875 130.463 21.0289 133.446 24.7933 135.651C28.6875 137.855 33.2308 135.651 37.3846 134.743C49.0673 132.149 60.75 130.074 72.5625 128.648C74.1202 128.388 75.8077 128.259 77.4952 128.518C79.3125 128.907 80.8702 129.815 82.4279 130.593C90.3462 134.484 99.4327 135.91 108.26 134.613C117.346 133.057 125.524 131.501 133.962 127.351ZM155.25 74.0503C156.418 73.7909 157.716 73.9206 159.014 74.0503C162 74.3097 165.115 74.8284 168.101 75.0878C161.351 76.5143 154.601 77.9408 148.37 80.9236C146.034 82.0908 143.697 83.2579 141.361 84.2954C139.024 85.2032 136.688 85.722 134.221 86.2407C139.543 82.7392 144.995 79.3674 150.577 76.1253C152.005 75.2175 153.562 74.3097 155.25 74.0503Z" fill="#FAB388"/>
<path d="M150.188 56.5428C148.76 56.5428 147.332 56.6725 145.904 56.9319C144.476 57.1912 143.048 57.3209 141.62 57.71C138.764 58.2287 136.428 59.7849 134.091 61.6005C131.755 63.2864 129.418 64.9724 126.822 66.3989C124.226 67.8254 121.63 68.9926 118.904 70.0301V69.9004C121.37 68.4739 123.966 67.0473 126.433 65.4911C128.899 63.9349 131.365 62.5083 133.702 60.8224C134.87 60.0443 136.168 59.1365 137.466 58.4881C138.764 57.8397 140.192 57.3209 141.62 57.0616C143.048 56.8022 144.476 56.6725 145.904 56.5428C147.202 56.4131 148.76 56.2834 150.188 56.5428Z" fill="#010101"/>
<path d="M176.149 65.102L162.389 64.0645C160.053 63.9348 157.846 63.6754 155.51 63.6754C153.303 63.6754 151.096 64.3238 148.889 65.102C146.683 65.8801 144.606 66.7879 142.659 67.6957C140.582 68.7331 138.635 69.7706 136.558 70.9378C132.534 73.0128 128.12 75.0877 123.577 75.3471V75.2174C128.12 74.4393 132.144 72.2346 136.168 70.03C138.115 68.8628 140.192 67.8253 142.269 66.7879C144.346 65.8801 146.553 64.9723 148.76 64.3238C150.966 63.6754 153.173 62.8973 155.639 63.027C157.976 63.027 160.183 63.4161 162.519 63.5457L176.149 65.102Z" fill="#010101"/>
<path d="M131.236 87.1484L137.596 85.3328C139.803 84.814 141.75 84.0359 143.827 82.9984C147.851 81.1829 151.745 79.1079 156.029 77.811C160.312 76.5142 164.596 75.6064 169.01 74.8283C173.423 74.0502 177.837 73.5314 182.12 73.0127C177.837 73.9205 173.423 74.5689 169.01 75.347C164.726 76.1251 160.312 77.0329 156.159 78.2001C151.875 79.3673 147.981 81.4422 143.957 83.2578C141.88 84.1656 139.803 84.9437 137.726 85.4625L131.236 87.1484Z" fill="#010101"/>
<path d="M151.486 116.457C151.096 115.29 151.615 114.123 152.394 113.215C153.173 112.307 154.212 111.918 155.25 111.4C157.327 110.492 159.404 109.584 161.611 109.714C161.87 109.714 162 109.714 162.13 109.843C162.389 109.973 162.519 110.232 162.649 110.492C162.909 110.881 163.168 111.4 163.298 111.789C163.558 112.437 163.817 113.085 163.558 113.734C163.298 114.253 162.779 114.642 162.26 114.901C159.793 116.068 152.784 120.348 151.486 116.457Z" fill="#B72025"/>
<path d="M170.308 61.4708C170.697 59.5255 172.904 60.0442 173.812 60.1739C175.76 60.4333 176.798 60.6927 178.875 61.0817C179.005 61.0817 179.135 61.4708 179.135 61.6005C179.135 61.8598 179.005 63.5457 179.005 63.8051C178.875 64.4535 178.356 64.8426 176.149 64.5832C174.591 64.3239 171.346 63.6754 170.697 63.027C170.438 62.8973 170.178 61.8598 170.308 61.4708Z" fill="#C18680"/>
<path d="M182.899 70.0299C184.327 70.2893 188.74 69.5112 189.779 69.1221C190.558 68.9925 190.298 67.5659 189.909 66.6581C189.779 66.2691 188.87 66.3988 188.351 66.3988C187.053 66.3988 186.404 66.2691 185.106 66.1394C184.197 66.0097 181.601 65.7503 180.822 66.2691C179.264 67.3066 180.822 69.2518 181.99 69.7706C182.12 69.9003 182.51 69.9003 182.899 70.0299Z" fill="#B72025"/>
<path d="M155.25 52.1335C154.212 52.3929 148.76 53.8194 147.591 53.8194C147.332 53.8194 146.942 53.6897 146.812 53.4303C146.553 53.171 146.423 52.7819 146.293 52.3929C146.163 51.8741 146.034 51.2257 145.904 50.707C145.904 50.5773 145.904 50.4476 145.904 50.4476C145.904 50.3179 146.163 50.3179 146.293 50.1882C148.63 49.6695 150.966 49.2804 153.303 48.7617C153.952 48.632 154.731 48.2429 155.12 48.7617C156.288 50.4476 156.288 51.8741 155.25 52.1335Z" fill="#B72025"/>
<path d="M190.168 72.6237C190.687 72.105 190.817 71.7159 190.558 70.9378C190.428 70.5488 190.168 70.03 189.779 70.1597C189.389 70.1597 189 70.4191 188.611 70.5488C186.923 71.3269 179.264 73.4018 180.952 76.2549C182.639 79.2377 188.74 74.0503 190.168 72.6237Z" fill="#B72025"/>
<path d="M175.37 62.5082C175.63 62.5082 176.019 62.3785 176.149 62.1191C176.279 61.8597 176.409 61.4707 176.279 61.2113C176.279 61.0816 176.019 60.952 175.76 60.8223C175.5 60.8223 175.5 60.8223 175.24 60.8223C174.721 60.952 174.202 61.341 173.683 61.7301C173.553 61.8597 173.423 61.8597 173.423 61.9894C173.293 62.1191 173.293 62.2488 173.423 62.3785C173.553 62.5082 173.553 62.6379 173.683 62.7675C174.202 63.2863 174.202 63.416 174.981 63.805C174.981 63.805 175.37 64.0644 175.5 64.0644C175.63 64.0644 175.889 63.9347 176.019 63.805C176.279 63.416 176.149 63.1566 175.889 62.7675C175.889 62.6379 175.63 62.6379 175.37 62.5082Z" fill="#771214"/>
<path d="M49.5865 141.746L75.2885 134.743C75.2885 134.743 76.1971 103.489 65.9423 83.7766L40.2404 89.3531L49.5865 141.746Z" fill="#2B348E"/>
<path d="M70.226 91.9467C76.5865 111.01 76.0673 134.613 76.0673 134.743C76.0673 135.132 75.8077 135.521 75.4183 135.521L49.7164 142.524C49.4567 142.524 49.3269 142.524 49.0673 142.394C48.9375 142.265 48.8077 142.005 48.6779 141.875L39.3317 89.4827C39.2019 88.9639 39.5914 88.5749 39.9808 88.4452L65.6827 82.8687C66.0721 82.739 66.3317 82.9984 66.5914 83.2578C68.0192 85.8515 69.1875 88.8342 70.226 91.9467ZM74.5096 134.094C74.5096 130.204 74.5096 109.454 68.7981 92.5951C67.8894 89.742 66.7212 87.1483 65.5529 84.814L41.2789 90.1311L50.3654 140.708L74.5096 134.094Z" fill="#161616"/>
<path d="M47.7692 130.982L75.0288 123.849C75.0288 123.331 74.899 122.682 74.899 122.034L47.3798 129.166L47.7692 130.982Z" fill="#161616"/>
<path d="M46.9904 126.832L74.7692 119.699C74.7692 119.181 74.6394 118.532 74.6394 118.013L46.7308 125.146L46.9904 126.832Z" fill="#161616"/>
<path d="M46.2115 122.682L74.3798 115.549C74.3798 115.031 74.25 114.382 74.1202 113.864L45.9519 120.996L46.2115 122.682Z" fill="#161616"/>
<path d="M45.4327 118.532L73.8606 111.529C73.7308 111.01 73.7308 110.362 73.6009 109.843L45.1731 116.846L45.4327 118.532Z" fill="#161616"/>
<path d="M44.7836 114.382L73.2115 107.509C73.0817 106.99 72.9519 106.342 72.9519 105.823L44.524 112.696L44.7836 114.382Z" fill="#161616"/>
<path d="M44.0048 110.232L72.4327 103.359C72.3029 102.84 72.1731 102.192 72.0433 101.673L43.6154 108.417L44.0048 110.232Z" fill="#161616"/>
<path d="M43.226 106.082L71.524 99.4684C71.3942 98.9496 71.2644 98.3012 71.1346 97.7825L42.9663 104.396L43.226 106.082Z" fill="#161616"/>
<path d="M42.5769 101.932L70.6154 95.4481C70.4856 94.9294 70.226 94.2809 70.0962 93.7622L42.3173 100.246L42.5769 101.932Z" fill="#161616"/>
<path d="M47.3798 92.8544C47.3798 92.8544 46.0817 85.0733 30.5048 84.9436C23.7548 84.9436 14.4087 85.3327 2.85577 86.1108V162.755C25.9615 156.27 38.2933 151.602 38.2933 151.602C38.2933 151.602 54.1298 147.582 53.7404 138.893C53.7404 139.022 54.7788 111.529 47.3798 92.8544Z" fill="#2B348E"/>
<path opacity="0.4" d="M47.3798 92.8544C47.3798 92.8544 46.0817 85.0733 30.5048 84.9436C23.2356 84.9436 12.851 85.4623 0 86.3701V101.803C26.2212 97.7824 39.9808 98.8199 41.4087 102.451C43.7452 108.546 25.3125 127.999 19.0817 132.797C12.851 137.596 34.2692 129.037 41.2788 122.682C47.5096 117.106 46.601 140.189 15.1875 159.124C30.2452 154.585 38.2933 151.602 38.2933 151.602C38.2933 151.602 54.1298 147.582 53.7404 138.893C53.7404 139.022 54.7788 111.529 47.3798 92.8544Z" fill="#333333"/>
<path d="M49.1971 95.1889C48.9375 94.2811 48.5481 93.3733 48.1587 92.4655C48.1587 92.3358 48.1587 92.2061 48.0288 91.9467C47.3798 90.1311 44.2644 84.0359 30.5048 83.9062C23.7548 83.9062 14.149 84.2953 1.42789 85.2031V86.889C14.0192 85.9812 23.7548 85.5922 30.5048 85.5922C43.226 85.5922 45.9519 90.7796 46.601 92.4655C46.601 92.5952 46.7308 92.7248 46.7308 92.7248V92.8545C53.8702 111.14 52.9615 138.374 52.9615 138.763C53.2212 146.674 38.2933 150.564 38.0337 150.564C37.774 150.694 25.0529 155.363 1.42789 161.977V163.792C25.3125 157.049 38.2933 152.38 38.4231 152.25C39.0721 152.121 54.9087 147.971 54.5192 138.763C54.5192 138.763 55.4279 113.734 49.1971 95.1889Z" fill="#161616"/>
<path d="M221.841 71.4564C222.75 72.2346 223.269 73.1424 223.269 74.4392C223.269 75.7361 222.75 76.6439 221.841 77.422C220.933 78.2001 219.635 78.5891 218.077 78.7188V79.886H216.779V78.7188C215.221 78.5891 214.053 78.2001 213.014 77.422C212.106 76.6439 211.587 75.7361 211.587 74.4392C211.587 73.1424 212.106 72.2346 213.014 71.4564C213.923 70.6783 215.221 70.2893 216.779 70.1596V68.9924H218.207V70.1596C219.635 70.2893 220.933 70.6783 221.841 71.4564ZM213.014 74.4392C213.014 75.347 213.274 75.9954 213.923 76.5142C214.572 77.0329 215.481 77.2923 216.649 77.422V71.5861C215.481 71.7158 214.572 71.9752 213.923 72.4939C213.404 72.7533 213.014 73.5314 213.014 74.4392ZM218.077 77.2923C219.245 77.1626 220.154 76.9032 220.803 76.3845C221.452 75.8658 221.712 75.2173 221.712 74.3095C221.712 73.4017 221.452 72.7533 220.803 72.2346C220.154 71.7158 219.245 71.4565 218.077 71.3268V77.2923Z" fill="white"/>
<path d="M236.899 78.3299C235.861 79.3673 234.433 80.0158 232.875 80.0158C231.317 80.0158 230.019 79.497 228.981 78.3299C227.942 77.2924 227.423 75.8658 227.423 74.4393C227.423 72.8831 227.942 71.5862 228.981 70.4191C230.019 69.3816 231.317 68.7332 232.875 68.7332C234.433 68.7332 235.731 69.2519 236.899 70.4191C237.937 71.4565 238.587 72.8831 238.587 74.4393C238.457 75.8658 237.937 77.2924 236.899 78.3299ZM229.889 77.2924C230.668 78.0705 231.707 78.4595 232.875 78.4595C234.043 78.4595 235.082 78.0705 235.861 77.2924C236.639 76.5143 237.029 75.4768 237.029 74.3096C237.029 73.1424 236.639 72.105 235.861 71.3269C235.082 70.5487 234.043 70.1597 232.875 70.1597C231.707 70.1597 230.668 70.5487 229.889 71.3269C229.111 72.105 228.721 73.1424 228.721 74.3096C228.721 75.6065 229.111 76.5143 229.889 77.2924Z" fill="white"/>
<path d="M249.88 68.9924H251.308V79.7563H249.88V74.958H244.687V79.7563H243.26V68.9924H244.687V73.5314H249.88V68.9924Z" fill="white"/>
<path d="M264.678 78.4596H265.846V81.8315H264.418V79.7565H257.279V81.8315H255.851V78.4596H256.76C257.409 77.6815 257.798 76.3847 257.798 74.6988V69.1223H264.678V78.4596ZM258.317 78.4596H263.12V70.4192H259.096V74.6988C259.226 76.255 258.966 77.5519 258.317 78.4596Z" fill="white"/>
<path d="M285.317 78.4596H286.486V81.8315H285.058V79.7565H277.918V81.8315H276.49V78.4596H277.399C278.048 77.6815 278.438 76.3847 278.438 74.6988V69.1223H285.317V78.4596ZM279.087 78.4596H283.889V70.4192H279.865V74.6988C279.865 76.255 279.606 77.5519 279.087 78.4596Z" fill="white"/>
<path d="M299.986 78.3299C298.947 79.3673 297.519 80.0158 295.962 80.0158C294.404 80.0158 293.106 79.497 292.067 78.3299C291.029 77.2924 290.51 75.8658 290.51 74.4393C290.51 72.8831 291.029 71.5862 292.067 70.4191C293.106 69.3816 294.404 68.7332 295.962 68.7332C297.519 68.7332 298.817 69.2519 299.986 70.4191C301.024 71.4565 301.673 72.8831 301.673 74.4393C301.543 75.8658 301.024 77.2924 299.986 78.3299ZM293.106 77.2924C293.885 78.0705 294.923 78.4595 296.091 78.4595C297.26 78.4595 298.298 78.0705 299.077 77.2924C299.856 76.5143 300.245 75.4768 300.245 74.3096C300.245 73.1424 299.856 72.105 299.077 71.3269C298.298 70.5487 297.26 70.1597 296.091 70.1597C294.923 70.1597 293.885 70.5487 293.106 71.3269C292.327 72.105 291.937 73.1424 291.937 74.3096C291.808 75.6065 292.197 76.5143 293.106 77.2924Z" fill="white"/>
<path d="M314.264 68.9924V79.7563H312.837V70.2893H307.904V79.7563H306.346V68.9924H314.264Z" fill="white"/>
<path d="M328.543 78.3299C327.505 79.3673 326.077 80.0158 324.519 80.0158C322.962 80.0158 321.663 79.497 320.625 78.3299C319.587 77.2924 319.067 75.8658 319.067 74.4393C319.067 72.8831 319.587 71.5862 320.625 70.4191C321.663 69.3816 322.962 68.7332 324.519 68.7332C326.077 68.7332 327.375 69.2519 328.543 70.4191C329.582 71.4565 330.231 72.8831 330.231 74.4393C330.231 75.8658 329.582 77.2924 328.543 78.3299ZM321.663 77.2924C322.442 78.0705 323.481 78.4595 324.649 78.4595C325.817 78.4595 326.856 78.0705 327.635 77.2924C328.413 76.5143 328.803 75.4768 328.803 74.3096C328.803 73.1424 328.413 72.105 327.635 71.3269C326.856 70.5487 325.817 70.1597 324.649 70.1597C323.481 70.1597 322.442 70.5487 321.663 71.3269C320.885 72.105 320.495 73.1424 320.495 74.3096C320.495 75.6065 320.885 76.5143 321.663 77.2924Z" fill="white"/>
<path d="M345.029 68.9924V79.7563H343.601V71.3268L340.096 77.1626H339.966L336.462 71.3268V79.7563H335.034V68.9924H336.591L339.966 74.6986L343.341 68.9924H345.029Z" fill="white"/>
<path d="M359.438 78.3299C358.399 79.3673 356.971 80.0158 355.413 80.0158C353.856 80.0158 352.558 79.497 351.519 78.3299C350.481 77.2924 349.962 75.8658 349.962 74.4393C349.962 72.8831 350.481 71.5862 351.519 70.4191C352.558 69.3816 353.856 68.7332 355.413 68.7332C356.971 68.7332 358.269 69.2519 359.438 70.4191C360.476 71.4565 361.125 72.8831 361.125 74.4393C360.995 75.8658 360.476 77.2924 359.438 78.3299ZM352.428 77.2924C353.207 78.0705 354.245 78.4595 355.413 78.4595C356.582 78.4595 357.62 78.0705 358.399 77.2924C359.178 76.5143 359.567 75.4768 359.567 74.3096C359.567 73.1424 359.178 72.105 358.399 71.3269C357.62 70.5487 356.582 70.1597 355.413 70.1597C354.245 70.1597 353.207 70.5487 352.428 71.3269C351.649 72.105 351.26 73.1424 351.26 74.3096C351.26 75.6065 351.649 76.5143 352.428 77.2924Z" fill="white"/>
<path d="M371.899 68.9924V70.2893H367.226V79.7563H365.798V68.9924H371.899Z" fill="white"/>
<path d="M383.063 79.7563V71.7158L377.481 79.7563H376.312V68.9924H377.74V77.0329L383.322 68.9924H384.49V79.7563H383.063Z" fill="white"/>
<path d="M404.611 78.4596H405.779V81.8315H404.351V79.7565H397.212V81.8315H395.784V78.4596H396.692C397.341 77.6815 397.731 76.3847 397.731 74.6988V69.1223H404.611V78.4596ZM398.38 78.4596H403.183V70.4192H399.159V74.6988C399.159 76.255 398.899 77.5519 398.38 78.4596Z" fill="white"/>
<path d="M410.582 68.9924H412.01V79.7563H410.582V68.9924Z" fill="white"/>
<path d="M424.212 68.9924V70.2893H420.966V79.7563H419.539V70.2893H416.423V68.9924H424.212Z" fill="white"/>
<path d="M435.375 68.9925V79.7563H433.947V75.6064H431.87L429.144 79.7563H427.587L430.442 75.4767C429.663 75.3471 429.144 74.958 428.625 74.3096C428.106 73.6611 427.846 73.0127 427.846 72.2346C427.846 71.3268 428.236 70.5487 428.885 69.9003C429.534 69.2519 430.312 68.8628 431.221 68.8628H435.375V68.9925ZM431.091 74.3096H433.947V70.2893H431.091C430.572 70.2893 430.053 70.5487 429.793 70.9378C429.404 71.3268 429.274 71.8456 429.274 72.3643C429.274 72.883 429.404 73.4018 429.793 73.7908C430.053 74.1799 430.572 74.3096 431.091 74.3096Z" fill="white"/>
<path d="M450.822 68.9924V79.7563H449.394V71.3268L445.889 77.1626H445.76L442.255 71.3268V79.7563H440.827V68.9924H442.385L445.76 74.6986L449.135 68.9924H450.822Z" fill="white"/>
<path d="M181.212 122.423C181.601 106.86 182.899 95.5779 185.365 95.5779C185.495 95.5779 185.625 95.5779 185.755 95.7076C186.274 96.2263 188.481 96.4857 189 98.9497C190.688 106.082 193.413 118.921 199.125 127.091C199.774 126.573 203.538 120.088 205.486 116.587L206.005 115.809C209.639 109.325 211.976 104.656 214.313 98.3013C214.832 97.1341 215.611 96.6154 217.168 96.6154C218.466 96.7451 219.245 97.1341 220.413 98.0419C219.764 119.57 220.154 141.227 219.635 162.755L219.505 167.423C218.986 168.591 217.947 169.758 216.389 169.758C215.611 169.758 214.702 168.98 214.183 168.461L214.313 162.755C214.702 145.247 213.923 127.61 214.572 110.103C212.236 114.253 209.899 118.402 207.822 122.812C206.913 124.238 203.019 132.279 202.111 134.094C201.591 135.391 198.865 138.374 197.438 135.002C187.702 112.956 187.442 112.956 187.312 112.956C185.236 130.463 184.976 148.489 184.846 166.127C184.716 167.164 183.678 167.942 182.769 167.942C182.25 167.942 180.433 167.294 180.043 166.645L181.212 122.423Z" fill="white"/>
<path d="M237.418 150.953L236.899 151.472L235.212 162.366C234.952 163.792 235.082 167.942 232.356 167.942C231.058 167.942 230.279 165.478 230.279 164.441C240.404 94.1513 240.404 94.0216 240.404 94.0216C240.923 92.2061 241.572 89.4827 244.038 89.4827C245.077 89.4827 246.505 90.0014 247.024 90.9092L247.803 92.9842C253.385 115.16 256.111 137.985 258.707 160.81L259.226 167.164C259.226 167.294 259.096 167.294 259.096 167.423C258.447 169.239 258.058 170.017 256.24 170.017H255.981C255.462 170.017 254.423 170.017 254.293 169.369L251.827 150.953H237.418ZM238.846 144.988L250.918 145.247L244.428 99.9872L238.846 144.988Z" fill="white"/>
<path d="M300.505 110.232L289.99 136.04C289.861 137.985 285.188 138.115 284.409 137.336C284.279 137.207 283.889 136.429 283.76 136.169C281.293 127.999 278.957 119.959 275.841 112.048C274.154 130.333 276.231 148.878 273.894 167.034C272.856 167.683 272.077 167.683 270.909 167.683C268.832 167.683 268.962 167.164 268.962 165.348C268.962 162.236 269.87 160.161 269.611 99.0793C269.611 96.2262 274.024 93.8919 275.192 97.134L287.005 129.555C289.861 126.313 298.298 99.0793 300.375 95.5778C301.284 93.6325 303.49 93.8919 305.957 95.5778C306.087 95.5778 306.476 127.61 306.606 141.227C306.736 149.916 307.125 158.864 307.125 167.553C307.125 169.239 305.957 170.795 304.139 170.795C302.582 170.795 302.192 170.406 301.673 168.85C302.062 149.267 301.413 129.815 300.505 110.232Z" fill="white"/>
<path d="M324.26 150.953L323.74 151.472L322.053 162.366C321.793 163.792 321.923 167.942 319.197 167.942C317.899 167.942 317.12 165.478 317.12 164.441C327.245 94.1513 327.245 94.0216 327.245 94.0216C327.764 92.2061 328.413 89.4827 330.88 89.4827C331.918 89.4827 333.346 90.0014 333.865 90.9092L334.644 92.9842C340.226 115.16 342.952 137.985 345.548 160.81L346.067 167.164C346.067 167.294 345.938 167.294 345.938 167.423C345.288 169.239 344.899 170.017 343.082 170.017H342.692C342.173 170.017 341.135 170.017 341.005 169.369L338.538 150.953H324.26ZM325.687 144.988L337.76 145.247L331.269 99.9872L325.687 144.988Z" fill="white"/>
<path d="M383.062 99.4683L387.346 158.605C387.606 160.42 387.865 161.977 387.865 163.792C387.736 165.348 386.178 165.867 384.62 165.867C382.543 165.867 382.154 164.052 381.764 162.236L379.298 119.699C378.779 112.696 377.74 105.693 378 98.8199C378.13 96.2262 382.933 97.134 383.062 99.4683Z" fill="white"/>
<path d="M397.601 163.533C397.601 141.746 398.38 119.699 398.899 97.9122C399.029 93.5029 400.716 93.5029 404.611 93.5029H405.519C414.476 93.5029 420.188 99.3388 420.188 107.898V108.935C420.188 116.068 418.37 124.238 411.88 128.648C412.399 129.166 414.606 131.76 414.995 132.408C419.409 138.115 418.24 151.991 418.76 158.735C418.76 159.253 419.279 163.792 419.279 164.311V165.089C419.279 166.775 417.721 166.905 416.423 166.905H416.293C415.255 166.905 413.957 166.905 413.567 165.608C413.437 162.366 412.659 147.582 412.399 144.34C412.01 139.541 411.101 133.057 405.13 133.057H403.572C403.442 133.965 403.053 137.855 403.053 138.633C402.923 139.541 402.534 161.069 402.404 169.239C402.404 171.055 402.663 173.13 400.327 173.13C399.288 173.13 398.12 172.741 397.471 171.833V163.533H397.601ZM405.13 125.924C412.01 125.924 414.606 113.215 414.606 108.806C414.606 104.267 412.529 98.431 406.947 98.431C405.519 98.431 404.481 99.3388 404.481 100.895C404.611 109.325 403.832 116.457 403.832 125.016C403.832 125.924 404.611 125.924 405.13 125.924Z" fill="white"/>
<path d="M437.322 150.953L436.803 151.472L435.115 162.366C434.856 163.792 434.986 167.942 432.26 167.942C430.962 167.942 430.183 165.478 430.183 164.441C440.308 94.1513 440.308 94.0216 440.308 94.0216C440.827 92.2061 441.476 89.4827 443.942 89.4827C444.981 89.4827 446.409 90.0014 446.928 90.9092L447.707 92.9842C453.288 115.16 456.014 137.985 458.611 160.81L459.13 167.164C459.13 167.294 459 167.294 459 167.423C458.351 169.239 457.962 170.017 456.144 170.017H455.885C455.365 170.017 454.327 170.017 454.197 169.369L451.731 150.953H437.322ZM438.75 144.988L450.822 145.247L444.332 99.9872L438.75 144.988Z" fill="white"/>
</g>
<defs>
<clipPath id="clip0_76_174">
<rect width="459" height="173" fill="white"/>
</clipPath>
</defs>
</svg>
