<svg width="354" height="134" viewBox="0 0 354 134" fill="none" xmlns="http://www.w3.org/2000/svg">
<g clip-path="url(#clip0_55_2)">
<path d="M102.8 46.1C102.9 46.1 102.9 46.1 102.9 46C102.6 46.1 102.5 46.2 102.8 46.1Z" fill="#B72025"/>
<path d="M113.4 37.9999C113.5 37.9999 113.5 37.8999 113.6 37.8999C113.5 37.9999 113.4 37.9999 113.4 37.9999Z" fill="#B72025"/>
<path d="M168.8 21.2C168.8 20.9 168.8 20.7 168.8 20.4C168.8 9.5 159.6 0 148.2 0C139.9 0 132.7 5.3 129.5 12.2C126.3 5.3 119.1 0 110.8 0C99.5 0 90.2 9.5 90.2 20.4C90.2 20.7 90.2 20.9 90.2 21.2C90.2 21.2 89.6 27.8 94.5 36.6C96.1 35.8 97.8 35.3 99.7 34.9C102.3 34.4 105 34.1 107.7 33.8C108.9 33.7 110.1 33.5 111.3 33.4C112.5 33.3 113 33.2 113.6 33C117.4 32 121.4 32.2 124.3 35.1C125.3 36.2 126.2 37.7 126.6 39.1C126.7 39.5 126.8 39.9 126.8 40.3C128.2 40.5 129.5 40.7 130.9 41C131.3 41.1 131.7 41.2 132.2 41.2C131 41.2 131.4 41.2 133.3 41.3C133.8 41.4 134.4 41.4 134.9 41.5C138.2 42 142.2 43.2 143.9 46C145 46 146.1 46.1 147.2 46.5C149.5 47.2 151.6 48.8 152.6 51C153.6 50.1 154.5 49.2 155.4 48.2C169.9 34.2 168.8 21.2 168.8 21.2Z" fill="#B72025"/>
<path d="M114.2 36.7C114.3 36.6 114.3 36.6 114.4 36.5C114.3 36.6 114.2 36.6 114.2 36.7Z" fill="#B72025"/>
<path d="M148.9 54.7999C148.9 54.6999 148.9 54.4999 148.8 54.3999C148.8 54.1999 148.7 54.0999 148.6 53.9999C148.6 53.8999 148.5 53.8999 148.5 53.7999C148.7 53.1999 148.7 52.4999 148.5 51.6999C148.3 50.7999 147.8 49.9999 146.9 49.5999C146.1 49.2999 145.3 49.3999 144.5 49.2999C143.3 49.1999 142.2 48.9999 141 48.9999C140.7 48.9999 140.4 48.9999 140.1 48.9999C140.1 48.5999 140.1 48.2999 140.1 47.9999C140.1 47.2999 139.9 46.4999 139.4 45.9999C138.8 45.3999 138 45.2999 137.3 45.0999C136.2 44.7999 135 44.6999 133.8 44.4999C130.9 44.0999 128 43.5999 125.1 43.0999C123.7 42.8999 122.4 42.6999 121 42.4999C121.3 41.9999 121.6 41.4999 121.8 40.9999C122.2 40.2999 122.3 39.5999 122.1 38.6999C121.8 37.4999 121 36.0999 119.8 35.6999C118.8 35.3999 117.8 35.7999 116.8 35.9999C115.7 36.1999 114.5 36.3999 113.4 36.5999C111 36.8999 108.7 37.1999 106.3 37.4999C104.1 37.7999 101.8 38.0999 99.7 38.6999C95.3 40.0999 91.8 43.1999 88.3 45.9999C84.6 48.8999 80.9 51.8999 77.3 54.8999C73.7 57.7999 70 60.6999 66.5 63.7999C65.3 64.8999 64.1 66.2999 62.8 67.0999C61.3 67.9999 59.3 67.9999 57.5 67.9999C55.4 67.9999 53.2 67.8999 51.1 67.9999C48.7 68.0999 46.4 68.1999 44 68.2999C39.2 68.5999 34.5 68.9999 29.7 69.4999C27.3 69.6999 25 69.9999 22.6 70.2999C20.5 70.5999 18.4 70.7999 16.4 71.3999C14.4 71.9999 12.5 73.0999 11.2 74.6999C9.8 76.2999 8.90001 78.1999 8.20001 80.1999C6.90001 83.9999 8.60001 87.8999 9.20001 91.8999C9.80001 95.8999 9.60001 99.6999 12.6 102.5C14.1 103.9 15.8 105.1 17.6 106.2C19.6 107.4 21.7 107.7 24 107.4C26 107.1 27.9 106.4 29.8 106C32.1 105.5 34.4 105 36.7 104.6C41.3 103.7 45.9 102.9 50.6 102.2C52.8 101.9 55 101.5 57.3 101.3C58.3 101.2 59.2 101.2 60.1 101.5C61.1 101.8 62 102.3 62.9 102.8C66.9 104.7 71.2 105.9 75.7 106.3C80.1 106.7 84.4 106.1 88.7 105.3C92.8 104.6 96.9 103.5 100.7 102C104.9 100.3 108.9 98.0999 112.9 96.0999C114.8 95.0999 116.7 94.1999 118.7 93.3999C121.2 93.3999 123.5 92.0999 125.7 90.8999C127.3 89.9999 128.6 88.7999 128.2 86.7999C127.9 85.0999 126.8 83.1999 125.1 82.8999C122.8 81.2999 119.9 80.7999 117.2 81.0999C114 81.4999 111.1 82.6999 108.3 83.9999C105.7 85.1999 103.1 86.4999 100.3 87.0999C100 87.1999 99.7 87.1999 99.4 87.2999C99.6 87.1999 99.8 86.9999 100 86.8999C103 84.7999 105.9 82.6999 108.9 80.5999C111.8 78.5999 114.6 76.4999 117.6 74.5999C120.2 72.8999 122.9 71.6999 125.9 70.6999C128.8 69.6999 131.7 68.9999 134.6 67.9999C137.9 66.8999 141.2 65.5999 144 63.5999C145.2 62.7999 146.3 61.7999 147.3 60.6999C147.8 60.0999 148.3 59.4999 148.7 58.7999C149.1 57.9999 149.2 57.2999 149.2 56.5999C149 55.8999 149 55.3999 148.9 54.7999ZM124.2 86.8999C124.1 86.8999 124.1 86.9999 124 86.9999C124 86.8999 124 86.8999 124 86.8999C124 86.8999 124.1 86.8999 124.2 86.8999ZM124.3 86.8999C124.5 86.8999 124.5 86.8999 124.3 86.8999V86.8999ZM124.3 86.7999C124.2 86.7999 124.1 86.7999 124.1 86.6999C124.1 86.6999 124.2 86.6999 124.3 86.7999ZM123.5 86.3999C123.4 86.2999 123.4 86.2999 123.4 86.2999C123.4 86.2999 123.4 86.3999 123.5 86.3999ZM144.8 56.5999C144.8 56.6999 144.8 56.4999 144.8 56.4999C144.6 57.0999 144.2 57.4999 143.7 57.9999C143.2 58.4999 142.7 58.9999 142.2 59.3999C142.1 59.4999 141.6 59.8999 141.8 59.7999C141.5 59.9999 141.2 60.1999 140.9 60.3999C138.3 62.0999 135.5 63.1999 132.5 64.1999C129.5 65.1999 126.5 65.9999 123.5 66.9999C120.3 68.0999 117.2 69.5999 114.4 71.4999C108.2 75.5999 102.2 79.9999 96.1 84.2999C94.5 85.3999 92.4 86.5999 92.9 88.8999C93.3 90.5999 95 91.3999 96.6 91.5999C98.1 91.6999 99.8 91.3999 101.3 90.9999C102.9 90.5999 104.4 89.9999 106 89.3999C109.1 88.0999 112.1 86.3999 115.3 85.4999C116.8 85.0999 118.4 84.8999 119.8 85.1999C120.5 85.2999 121.2 85.4999 121.8 85.7999C122.1 85.9999 122.4 86.1999 122.6 86.2999C122.9 86.4999 123.1 86.6999 123.5 86.7999H123.6C123.6 86.8999 123.7 86.9999 123.7 86.9999C123.2 87.1999 122.8 87.4999 122.3 87.7999C121.8 88.0999 120.9 88.4999 120.5 88.6999C120.1 88.7999 119.8 88.9999 119.4 89.0999C119.2 89.0999 119.1 89.1999 118.9 89.1999C118.9 89.1999 118.6 89.1999 118.5 89.1999C118.5 89.1999 118.4 89.1999 118.2 89.1999C117.8 89.1999 117.5 89.1999 117.1 89.3999C116.5 89.5999 116 89.8999 115.4 90.0999C114.3 90.5999 113.2 91.0999 112.2 91.5999C110.2 92.5999 108.1 93.5999 106.1 94.6999C102.3 96.6999 98.5 98.4999 94.3 99.6999C90.4 100.8 86.3 101.6 82.2 102.1C78 102.6 73.8 102.3 69.8 101.2C67.8 100.7 65.9 99.8999 64 98.9999C62 97.9999 60 97.0999 57.7 97.1999C55.3 97.2999 53 97.6999 50.6 97.9999C48.3 98.2999 46.1 98.6999 43.8 98.9999C39.2 99.7999 34.6 100.6 30 101.6C27.9 102 25.9 102.7 23.8 103.2C23 103.4 22.1 103.5 21.3 103.4C20.4 103.3 19.7 102.9 19 102.4C16 100.5 13 98.0999 11.7 94.7999C10.3 91.3999 10.4 87.4999 11.2 83.8999C12 80.5999 13.3 76.7999 16.8 75.4999C18.6 74.7999 20.6 74.5999 22.5 74.3999C24.8 74.0999 27.1 73.7999 29.4 73.5999C34.1 73.0999 38.8 72.6999 43.5 72.3999C45.9 72.2999 48.2 72.0999 50.6 71.9999C52.8 71.8999 55 71.9999 57.2 71.9999C59.4 71.9999 61.7 71.9999 63.7 71.0999C65.4 70.2999 66.8 68.9999 68.1 67.6999C71.2 64.6999 74.8 61.9999 78.2 59.1999C81.9 56.1999 85.5 53.2999 89.2 50.2999C91 48.8999 92.8 47.3999 94.7 45.9999C96.3 44.7999 97.9 43.5999 99.8 42.8999C101.8 42.1999 103.8 41.7999 105.9 41.5999C108.2 41.2999 110.5 40.9999 112.8 40.7999C114 40.6999 115.2 40.5999 116.4 40.2999C116.9 40.1999 117.3 40.0999 117.8 39.9999L117.7 40.0999C117.6 40.1999 117.5 40.2999 117.4 40.3999L117.3 40.4999C117.2 40.5999 117 40.6999 116.9 40.7999C116.6 40.9999 116.4 41.0999 116.1 41.2999C115.8 41.3999 115.5 41.5999 115.3 41.6999C115.2 41.6999 115.1 41.7999 115 41.7999C114.8 41.8999 114.8 41.8999 114.9 41.8999C114.1 42.2999 113.5 42.8999 113.5 43.7999C113.5 44.5999 114.1 45.5999 115 45.7999C118.9 46.3999 122.9 46.9999 126.8 47.5999C128.8 47.8999 130.8 48.4999 132.8 48.5999C133.4 48.5999 134 48.6999 134.6 48.7999C133.2 49.6999 133.4 52.1999 135.2 52.4999C136.4 52.6999 137.5 52.8999 138.7 53.0999C139 53.0999 139.4 53.1999 139.7 53.1999C139.7 53.1999 140.1 53.1999 140.2 53.0999C140.6 53.0999 141 53.0999 141.4 53.0999C142.1 53.0999 142.8 53.1999 143.5 53.2999C143.6 53.2999 143.6 53.2999 143.7 53.2999C143 54.2999 143.7 55.7999 144.8 56.2999C144.8 56.4999 144.8 56.4999 144.8 56.5999ZM96.7 87.3999C96.6 87.3999 96.6 87.3999 96.6 87.3999C96.6 87.2999 96.6 87.2999 96.7 87.3999Z" fill="#231F20"/>
<path d="M129.6 56.1998C127.2 55.9998 124.7 55.5998 122.3 55.2998C121.1 55.1998 119.8 55.1998 118.6 55.4998C117.4 55.7998 116.2 56.4998 115.2 57.0998C111 59.5998 106.8 62.1998 102.7 64.8998C102.2 65.0998 101.8 65.5998 101.6 66.1998C101.6 66.2998 101.6 66.2998 101.6 66.3998C101.6 66.4998 101.6 66.4998 101.6 66.5998C101.6 66.6998 101.6 66.6998 101.6 66.7998C101.6 66.8998 101.6 66.8998 101.6 66.9998C101.6 67.0998 101.6 67.0998 101.6 67.1998C101.6 67.2998 101.6 67.2998 101.6 67.3998C101.6 67.5998 101.7 67.6998 101.8 67.8998C101.8 67.9998 101.9 67.9998 101.9 68.0998C101.9 68.0998 101.9 68.1998 102 68.1998C102.2 68.3998 102.3 68.4998 102.5 68.5998C103 68.8998 103.6 68.9998 104.2 68.7998C104.8 68.6998 105.4 68.4998 106 68.3998C106.1 68.3998 106.3 68.3998 106.4 68.2998C106.8 68.1998 107.1 68.0998 107.5 67.9998H107.6C108 67.8998 108.3 67.7998 108.7 67.6998C108.9 67.5998 109.1 67.4998 109.3 67.3998C110.7 66.8998 112.1 66.2998 113.5 65.5998C116.1 64.2998 118.7 63.1998 121.6 62.3998C124.4 61.5998 127.3 60.8998 130.2 60.2998C131.2 60.0998 131.8 58.9998 131.7 57.9998C131.4 56.8998 130.6 56.2998 129.6 56.1998Z" fill="#231F20"/>
<path d="M103.2 98.2001C109.4 95.2001 115.4 91.6001 122 89.6001C123.4 89.1001 125.2 88.4001 125.3 86.8001C125.3 85.8001 124.6 84.9001 123.8 84.4001C120.9 82.3001 117.1 82.5001 113.7 83.6001C107.9 85.5001 103.3 89.1001 97.1 89.3001C96.1 89.3001 94.7 88.8001 94.9 87.8001C95 87.4001 95.4 87.1001 95.7 86.9001C101.3 83.0001 106.8 79.1001 112.4 75.2001C114.6 73.7001 116.7 72.2001 119 70.9001C126.5 67.0001 135.4 66.5001 142.4 61.6001C143.7 60.7001 146 58.6001 146.6 57.0001C146.9 56.1001 146.6 54.9001 145.8 54.7001C145.6 54.6001 145.4 54.6001 145.2 54.6001C145.8 54.0001 146.1 53.3001 145.6 52.6001C145.1 51.8001 144 51.6001 143.1 51.4001C140.6 51.1001 138.1 50.9001 135.7 50.3001C136.1 50.1001 136.7 49.7001 137 49.2001C137.2 48.8001 137.2 48.3001 136.9 48.0001C136.8 47.9001 137.3 47.2001 137.2 47.2001C130.3 45.6001 122.6 44.7001 115.6 43.6001C116.9 43.1001 121.8 40.9001 119.4 38.8001C118.5 37.9001 117.1 38.0001 115.9 38.2001C113 38.6001 110 38.9001 107.1 39.3001C104.1 39.7001 101.1 40.0001 98.4 41.3001C96.4 42.2001 94.6 43.6001 92.8 45.0001C87.3 49.3001 81.9 53.7001 76.5 58.1001C73.7 60.4001 71 62.6001 68.3 64.9001C66.3 66.6001 64.6 69.0001 62 69.5001C58.9 70.1001 55.4 69.7001 52.2 69.8001C48.8 69.9001 45.4 70.1001 42 70.3001C35.1 70.8001 28.2 71.4001 21.3 72.3001C18.7 72.6001 15.9 73.1001 13.8 74.8001C11.8 76.4001 10.6 79.0001 9.8 81.6001C8.2 86.9001 8.1 93.0001 11.1 97.6001C13 100.6 16.2 102.9 19.1 104.6C22.1 106.3 25.6 104.6 28.8 103.9C37.8 101.9 46.8 100.3 55.9 99.2001C57.1 99 58.4 98.9001 59.7 99.1001C61.1 99.4001 62.3 100.1 63.5 100.7C69.6 103.7 76.6 104.8 83.4 103.8C90.4 102.6 96.7 101.4 103.2 98.2001ZM119.6 57.1001C120.5 56.9001 121.5 57.0001 122.5 57.1001C124.8 57.3001 127.2 57.7001 129.5 57.9001C124.3 59.0001 119.1 60.1001 114.3 62.4001C112.5 63.3001 110.7 64.2001 108.9 65.0001C107.1 65.7001 105.3 66.1001 103.4 66.5001C107.5 63.8001 111.7 61.2001 116 58.7001C117.1 58.0001 118.3 57.3001 119.6 57.1001Z" fill="#FAB388"/>
<path d="M115.7 43.6001C111.3 43.7001 106.7 44.5001 103.3 47.4001C99.7 50.1001 95.8 52.4001 91.6 53.9001V53.8001C96.5 51.1001 101.1 48.0001 105.9 45.1001C107.9 44.0001 110.2 43.8001 112.4 43.6001C113.4 43.5001 114.6 43.4001 115.7 43.6001Z" fill="#010101"/>
<path d="M135.7 50.1999C132 49.9999 123.4 49.1999 119.8 49.0999C110.8 49.5999 104.1 57.3999 95.2 58.0999V57.9999C102.2 56.6999 107.7 51.4999 114.6 49.5999C118 48.1999 121.7 48.5999 125.2 48.9999C125.1 49.0999 135.9 49.9999 135.7 50.1999Z" fill="#010101"/>
<path d="M101.1 67.2L106 65.8001C111 64.5001 115.2 61.5 120.2 60C126.7 58 133.5 57 140.3 56.3C133.6 57.6 126.9 58.5 120.3 60.3C115.4 61.7 111 64.7001 106.1 65.9001C106.1 66.0001 101.1 67.2 101.1 67.2Z" fill="#010101"/>
<path d="M116.7 89.7999C116.4 88.8999 116.8 87.9999 117.4 87.2999C118 86.5999 118.8 86.2999 119.6 85.8999C121.2 85.1999 122.8 84.4999 124.5 84.5999C124.7 84.5999 124.8 84.5999 124.9 84.6999C125.1 84.7999 125.2 84.9999 125.3 85.1999C125.5 85.4999 125.7 85.8999 125.8 86.1999C126 86.6999 126.2 87.1999 126 87.6999C125.8 88.0999 125.4 88.3999 125 88.5999C123.1 89.4999 117.7 92.7999 116.7 89.7999Z" fill="#B72025"/>
<path d="M131.2 47.4C131.5 45.9 133.2 46.3 133.9 46.4C135.4 46.6 136.2 46.8 137.8 47.1C137.9 47.1 138 47.4 138 47.5C138 47.7 137.9 49 137.9 49.2C137.8 49.7 137.4 50 135.7 49.8C134.5 49.6 132 49.1 131.5 48.6C131.3 48.5 131.1 47.7 131.2 47.4Z" fill="#C18680"/>
<path d="M140.9 53.9999C142 54.1999 145.4 53.5999 146.2 53.2999C146.8 53.1999 146.6 52.0999 146.3 51.3999C146.2 51.0999 145.5 51.1999 145.1 51.1999C144.1 51.1999 143.6 51.0999 142.6 50.9999C141.9 50.8999 139.9 50.6999 139.3 51.0999C138.1 51.8999 139.3 53.3999 140.2 53.7999C140.3 53.8999 140.6 53.8999 140.9 53.9999Z" fill="#B72025"/>
<path d="M119.6 40.2001C118.8 40.4001 114.6 41.5001 113.7 41.5001C113.5 41.5001 113.2 41.4001 113.1 41.2001C112.9 41.0001 112.8 40.7001 112.7 40.4001C112.6 40.0001 112.5 39.5001 112.4 39.1001C112.4 39.0001 112.4 38.9001 112.4 38.9001C112.4 38.8001 112.6 38.8001 112.7 38.7001C114.5 38.3001 116.3 38.0001 118.1 37.6001C118.6 37.5001 119.2 37.2001 119.5 37.6001C120.4 38.9001 120.4 40.0001 119.6 40.2001Z" fill="#B72025"/>
<path d="M146.5 55.9999C146.9 55.5999 147 55.2999 146.8 54.6999C146.7 54.3999 146.5 53.9999 146.2 54.0999C145.9 54.0999 145.6 54.2999 145.3 54.3999C144 54.9999 138.1 56.5999 139.4 58.7999C140.7 61.0999 145.4 57.0999 146.5 55.9999Z" fill="#B72025"/>
<path d="M135.1 48.1999C135.3 48.1999 135.6 48.0999 135.7 47.8999C135.8 47.6999 135.9 47.3999 135.8 47.1999C135.8 47.0999 135.6 46.9999 135.4 46.8999C135.2 46.8999 135.2 46.8999 135 46.8999C134.6 46.9999 134.2 47.2999 133.8 47.5999C133.7 47.6999 133.6 47.6999 133.6 47.7999C133.5 47.8999 133.5 47.9999 133.6 48.0999C133.7 48.1999 133.7 48.2999 133.8 48.3999C134.2 48.7999 134.2 48.8999 134.8 49.1999C134.8 49.1999 135.1 49.3999 135.2 49.3999C135.3 49.3999 135.5 49.2999 135.6 49.1999C135.8 48.8999 135.7 48.6999 135.5 48.3999C135.5 48.2999 135.3 48.2999 135.1 48.1999Z" fill="#771214"/>
<path d="M38.2 109.3L58 103.9C58 103.9 58.7 79.7999 50.8 64.5999L31 68.8999L38.2 109.3Z" fill="#2B348E"/>
<path d="M54.1 70.8999C59 85.5999 58.6 103.8 58.6 103.9C58.6 104.2 58.4 104.5 58.1 104.5L38.3 109.9C38.1 109.9 38 109.9 37.8 109.8C37.7 109.7 37.6 109.5 37.5 109.4L30.3 68.9999C30.2 68.5999 30.5 68.2999 30.8 68.1999L50.6 63.8999C50.9 63.7999 51.1 63.9999 51.3 64.1999C52.4 66.1999 53.3 68.4999 54.1 70.8999ZM57.4 103.4C57.4 100.4 57.4 84.3999 53 71.3999C52.3 69.1999 51.4 67.1999 50.5 65.3999L31.8 69.4999L38.8 108.5L57.4 103.4Z" fill="#161616"/>
<path d="M36.8 101L57.8 95.4999C57.8 95.0999 57.7 94.5999 57.7 94.0999L36.5 99.5999L36.8 101Z" fill="#161616"/>
<path d="M36.2 97.8L57.6 92.3C57.6 91.9 57.5 91.4 57.5 91L36 96.5L36.2 97.8Z" fill="#161616"/>
<path d="M35.6 94.5998L57.3 89.0998C57.3 88.6998 57.2 88.1998 57.1 87.7998L35.4 93.2998L35.6 94.5998Z" fill="#161616"/>
<path d="M35 91.4L56.9 86C56.8 85.6 56.8 85.1 56.7 84.7L34.8 90.1L35 91.4Z" fill="#161616"/>
<path d="M34.5 88.1999L56.4 82.8999C56.3 82.4999 56.2 81.9999 56.2 81.5999L34.3 86.8999L34.5 88.1999Z" fill="#161616"/>
<path d="M33.9 84.9999L55.8 79.6999C55.7 79.2999 55.6 78.7999 55.5 78.3999L33.6 83.5999L33.9 84.9999Z" fill="#161616"/>
<path d="M33.3 81.7999L55.1 76.6999C55 76.2999 54.9 75.7999 54.8 75.3999L33.1 80.4999L33.3 81.7999Z" fill="#161616"/>
<path d="M32.8 78.5998L54.4 73.5998C54.3 73.1998 54.1 72.6998 54 72.2998L32.6 77.2998L32.8 78.5998Z" fill="#161616"/>
<path d="M36.5 71.6C36.5 71.6 35.5 65.6 23.5 65.5C18.3 65.5 11.1 65.8 2.20001 66.4V125.5C20 120.5 29.5 116.9 29.5 116.9C29.5 116.9 41.7 113.8 41.4 107.1C41.4 107.2 42.2 86 36.5 71.6Z" fill="#2B348E"/>
<path opacity="0.4" d="M36.5 71.6C36.5 71.6 35.5 65.6 23.5 65.5C17.9 65.5 9.9 65.9 0 66.6V78.5C20.2 75.4 30.8 76.2 31.9 79C33.7 83.7 19.5 98.7 14.7 102.4C9.9 106.1 26.4 99.5 31.8 94.6C36.6 90.3 35.9 108.1 11.7 122.7C23.3 119.2 29.5 116.9 29.5 116.9C29.5 116.9 41.7 113.8 41.4 107.1C41.4 107.2 42.2 86 36.5 71.6Z" fill="#333333"/>
<path d="M37.9 73.4C37.7 72.7 37.4 72 37.1 71.3C37.1 71.2 37.1 71.1 37 70.9C36.5 69.5 34.1 64.8 23.5 64.7C18.3 64.7 10.9 65 1.09998 65.7V67C10.8 66.3 18.3 66 23.5 66C33.3 66 35.4 70 35.9 71.3C35.9 71.4 36 71.5 36 71.5V71.6C41.5 85.7 40.8 106.7 40.8 107C41 113.1 29.5 116.1 29.3 116.1C29.1 116.2 19.3 119.8 1.09998 124.9V126.3C19.5 121.1 29.5 117.5 29.6 117.4C30.1 117.3 42.3 114.1 42 107C42 107 42.7 87.7 37.9 73.4Z" fill="#161616"/>
<path d="M170.9 55.0999C171.6 55.6999 172 56.4 172 57.4C172 58.4 171.6 59.1 170.9 59.7C170.2 60.3 169.2 60.6 168 60.7V61.5999H167V60.7C165.8 60.6 164.9 60.3 164.1 59.7C163.4 59.1 163 58.4 163 57.4C163 56.4 163.4 55.6999 164.1 55.0999C164.8 54.4999 165.8 54.1999 167 54.0999V53.2H168.1V54.0999C169.2 54.1999 170.2 54.4999 170.9 55.0999ZM164.1 57.4C164.1 58.1 164.3 58.6 164.8 59C165.3 59.4 166 59.6 166.9 59.7V55.2C166 55.3 165.3 55.5 164.8 55.9C164.4 56.1 164.1 56.7 164.1 57.4ZM168 59.5999C168.9 59.4999 169.6 59.3 170.1 58.9C170.6 58.5 170.8 57.9999 170.8 57.2999C170.8 56.5999 170.6 56.1 170.1 55.7C169.6 55.3 168.9 55.1 168 55V59.5999Z" fill="#010101"/>
<path d="M182.5 60.4C181.7 61.2 180.6 61.7 179.4 61.7C178.2 61.7 177.2 61.3 176.4 60.4C175.6 59.6 175.2 58.5 175.2 57.4C175.2 56.2 175.6 55.2 176.4 54.3C177.2 53.5 178.2 53 179.4 53C180.6 53 181.6 53.4 182.5 54.3C183.3 55.1 183.8 56.2 183.8 57.4C183.7 58.5 183.3 59.6 182.5 60.4ZM177.1 59.6C177.7 60.2 178.5 60.5 179.4 60.5C180.3 60.5 181.1 60.2 181.7 59.6C182.3 59 182.6 58.2 182.6 57.3C182.6 56.4 182.3 55.6 181.7 55C181.1 54.4 180.3 54.1 179.4 54.1C178.5 54.1 177.7 54.4 177.1 55C176.5 55.6 176.2 56.4 176.2 57.3C176.2 58.3 176.5 59 177.1 59.6Z" fill="#010101"/>
<path d="M192.5 53.2H193.6V61.5H192.5V57.7999H188.5V61.5H187.4V53.2H188.5V56.7H192.5V53.2Z" fill="#010101"/>
<path d="M203.9 60.5H204.8V63.1H203.7V61.5H198.2V63.1H197.1V60.5H197.8C198.3 59.9 198.6 58.9 198.6 57.6V53.3H203.9V60.5ZM199 60.5H202.7V54.3H199.6V57.6C199.7 58.8 199.5 59.8 199 60.5Z" fill="#010101"/>
<path d="M219.8 60.5H220.7V63.1H219.6V61.5H214.1V63.1H213V60.5H213.7C214.2 59.9 214.5 58.9 214.5 57.6V53.3H219.8V60.5ZM215 60.5H218.7V54.3H215.6V57.6C215.6 58.8 215.4 59.8 215 60.5Z" fill="#010101"/>
<path d="M231.1 60.4C230.3 61.2 229.2 61.7 228 61.7C226.8 61.7 225.8 61.3 225 60.4C224.2 59.6 223.8 58.5 223.8 57.4C223.8 56.2 224.2 55.2 225 54.3C225.8 53.5 226.8 53 228 53C229.2 53 230.2 53.4 231.1 54.3C231.9 55.1 232.4 56.2 232.4 57.4C232.3 58.5 231.9 59.6 231.1 60.4ZM225.8 59.6C226.4 60.2 227.2 60.5 228.1 60.5C229 60.5 229.8 60.2 230.4 59.6C231 59 231.3 58.2 231.3 57.3C231.3 56.4 231 55.6 230.4 55C229.8 54.4 229 54.1 228.1 54.1C227.2 54.1 226.4 54.4 225.8 55C225.2 55.6 224.9 56.4 224.9 57.3C224.8 58.3 225.1 59 225.8 59.6Z" fill="#010101"/>
<path d="M242.1 53.2V61.5H241V54.2H237.2V61.5H236V53.2H242.1Z" fill="#010101"/>
<path d="M253.1 60.4C252.3 61.2 251.2 61.7 250 61.7C248.8 61.7 247.8 61.3 247 60.4C246.2 59.6 245.8 58.5 245.8 57.4C245.8 56.2 246.2 55.2 247 54.3C247.8 53.5 248.8 53 250 53C251.2 53 252.2 53.4 253.1 54.3C253.9 55.1 254.4 56.2 254.4 57.4C254.4 58.5 253.9 59.6 253.1 60.4ZM247.8 59.6C248.4 60.2 249.2 60.5 250.1 60.5C251 60.5 251.8 60.2 252.4 59.6C253 59 253.3 58.2 253.3 57.3C253.3 56.4 253 55.6 252.4 55C251.8 54.4 251 54.1 250.1 54.1C249.2 54.1 248.4 54.4 247.8 55C247.2 55.6 246.9 56.4 246.9 57.3C246.9 58.3 247.2 59 247.8 59.6Z" fill="#010101"/>
<path d="M265.8 53.2V61.5H264.7V55L262 59.5H261.9L259.2 55V61.5H258.1V53.2H259.3L261.9 57.5999L264.5 53.2H265.8Z" fill="#010101"/>
<path d="M276.9 60.4C276.1 61.2 275 61.7 273.8 61.7C272.6 61.7 271.6 61.3 270.8 60.4C270 59.6 269.6 58.5 269.6 57.4C269.6 56.2 270 55.2 270.8 54.3C271.6 53.5 272.6 53 273.8 53C275 53 276 53.4 276.9 54.3C277.7 55.1 278.2 56.2 278.2 57.4C278.1 58.5 277.7 59.6 276.9 60.4ZM271.5 59.6C272.1 60.2 272.9 60.5 273.8 60.5C274.7 60.5 275.5 60.2 276.1 59.6C276.7 59 277 58.2 277 57.3C277 56.4 276.7 55.6 276.1 55C275.5 54.4 274.7 54.1 273.8 54.1C272.9 54.1 272.1 54.4 271.5 55C270.9 55.6 270.6 56.4 270.6 57.3C270.6 58.3 270.9 59 271.5 59.6Z" fill="#010101"/>
<path d="M286.5 53.2V54.2H282.9V61.5H281.8V53.2H286.5Z" fill="#010101"/>
<path d="M295.1 61.5V55.2999L290.8 61.5H289.9V53.2H291V59.4L295.3 53.2H296.2V61.5H295.1Z" fill="#010101"/>
<path d="M311.7 60.5H312.6V63.1H311.5V61.5H306V63.1H304.9V60.5H305.6C306.1 59.9 306.4 58.9 306.4 57.6V53.3H311.7V60.5ZM306.9 60.5H310.6V54.3H307.5V57.6C307.5 58.8 307.3 59.8 306.9 60.5Z" fill="#010101"/>
<path d="M316.3 53.2H317.4V61.5H316.3V53.2Z" fill="#010101"/>
<path d="M326.8 53.2V54.2H324.3V61.5H323.2V54.2H320.8V53.2H326.8Z" fill="#010101"/>
<path d="M335.4 53.2001V61.5001H334.3V58.3001H332.7L330.6 61.5001H329.4L331.6 58.2001C331 58.1001 330.6 57.8001 330.2 57.3001C329.8 56.8001 329.6 56.3001 329.6 55.7001C329.6 55.0001 329.9 54.4001 330.4 53.9001C330.9 53.4001 331.5 53.1001 332.2 53.1001H335.4V53.2001ZM332.1 57.3001H334.3V54.2001H332.1C331.7 54.2001 331.3 54.4001 331.1 54.7001C330.8 55.0001 330.7 55.4001 330.7 55.8001C330.7 56.2001 330.8 56.6001 331.1 56.9001C331.3 57.2001 331.7 57.3001 332.1 57.3001Z" fill="#010101"/>
<path d="M347.3 53.2V61.5H346.2V55L343.5 59.5H343.4L340.7 55V61.5H339.6V53.2H340.8L343.4 57.5999L346 53.2H347.3Z" fill="#010101"/>
<path d="M139.6 94.4C139.9 82.4 140.9 73.7 142.8 73.7C142.9 73.7 143 73.7 143.1 73.8C143.5 74.2 145.2 74.4 145.6 76.3C146.9 81.8 149 91.7 153.4 98C153.9 97.6 156.8 92.6 158.3 89.9L158.7 89.3C161.5 84.3 163.3 80.7 165.1 75.8C165.5 74.9 166.1 74.5 167.3 74.5C168.3 74.6 168.9 74.9 169.8 75.6C169.3 92.2 169.6 108.9 169.2 125.5L169.1 129.1C168.7 130 167.9 130.9 166.7 130.9C166.1 130.9 165.4 130.3 165 129.9L165.1 125.5C165.4 112 164.8 98.4 165.3 84.9C163.5 88.1 161.7 91.3 160.1 94.7C159.4 95.8 156.4 102 155.7 103.4C155.3 104.4 153.2 106.7 152.1 104.1C144.6 87.1 144.4 87.1 144.3 87.1C142.7 100.6 142.5 114.5 142.4 128.1C142.3 128.9 141.5 129.5 140.8 129.5C140.4 129.5 139 129 138.7 128.5L139.6 94.4Z" fill="#010101"/>
<path d="M182.9 116.4L182.5 116.8L181.2 125.2C181 126.3 181.1 129.5 179 129.5C178 129.5 177.4 127.6 177.4 126.8C185.2 72.6 185.2 72.5 185.2 72.5C185.6 71.1 186.1 69 188 69C188.8 69 189.9 69.4 190.3 70.1L190.9 71.7C195.2 88.8 197.3 106.4 199.3 124L199.7 128.9C199.7 129 199.6 129 199.6 129.1C199.1 130.5 198.8 131.1 197.4 131.1H197.2C196.8 131.1 196 131.1 195.9 130.6L194 116.4H182.9ZM184 111.8L193.3 112L188.3 77.1L184 111.8Z" fill="#010101"/>
<path d="M231.5 85L223.4 104.9C223.3 106.4 219.7 106.5 219.1 105.9C219 105.8 218.7 105.2 218.6 105C216.7 98.7 214.9 92.5 212.5 86.4C211.2 100.5 212.8 114.8 211 128.8C210.2 129.3 209.6 129.3 208.7 129.3C207.1 129.3 207.2 128.9 207.2 127.5C207.2 125.1 207.9 123.5 207.7 76.4C207.7 74.2 211.1 72.4 212 74.9L221.1 99.9C223.3 97.4 229.8 76.4 231.4 73.7C232.1 72.2 233.8 72.4 235.7 73.7C235.8 73.7 236.1 98.4 236.2 108.9C236.3 115.6 236.6 122.5 236.6 129.2C236.6 130.5 235.7 131.7 234.3 131.7C233.1 131.7 232.8 131.4 232.4 130.2C232.7 115.1 232.2 100.1 231.5 85Z" fill="#010101"/>
<path d="M249.8 116.4L249.4 116.8L248.1 125.2C247.9 126.3 248 129.5 245.9 129.5C244.9 129.5 244.3 127.6 244.3 126.8C252.1 72.6 252.1 72.5 252.1 72.5C252.5 71.1 253 69 254.9 69C255.7 69 256.8 69.4 257.2 70.1L257.8 71.7C262.1 88.8 264.2 106.4 266.2 124L266.6 128.9C266.6 129 266.5 129 266.5 129.1C266 130.5 265.7 131.1 264.3 131.1H264C263.6 131.1 262.8 131.1 262.7 130.6L260.8 116.4H249.8ZM250.9 111.8L260.2 112L255.2 77.1L250.9 111.8Z" fill="#010101"/>
<path d="M295.1 76.7L298.4 122.3C298.6 123.7 298.8 124.9 298.8 126.3C298.7 127.5 297.5 127.9 296.3 127.9C294.7 127.9 294.4 126.5 294.1 125.1L292.2 92.3C291.8 86.9 291 81.5 291.2 76.2C291.3 74.2 295 74.9 295.1 76.7Z" fill="#010101"/>
<path d="M306.3 126.1C306.3 109.3 306.9 92.3001 307.3 75.5001C307.4 72.1001 308.7 72.1001 311.7 72.1001H312.4C319.3 72.1001 323.7 76.6001 323.7 83.2001V84.0001C323.7 89.5001 322.3 95.8001 317.3 99.2001C317.7 99.6001 319.4 101.6 319.7 102.1C323.1 106.5 322.2 117.2 322.6 122.4C322.6 122.8 323 126.3 323 126.7V127.3C323 128.6 321.8 128.7 320.8 128.7H320.7C319.9 128.7 318.9 128.7 318.6 127.7C318.5 125.2 317.9 113.8 317.7 111.3C317.4 107.6 316.7 102.6 312.1 102.6H310.9C310.8 103.3 310.5 106.3 310.5 106.9C310.4 107.6 310.1 124.2 310 130.5C310 131.9 310.2 133.5 308.4 133.5C307.6 133.5 306.7 133.2 306.2 132.5V126.1H306.3ZM312.1 97.1001C317.4 97.1001 319.4 87.3001 319.4 83.9001C319.4 80.4001 317.8 75.9001 313.5 75.9001C312.4 75.9001 311.6 76.6001 311.6 77.8001C311.7 84.3001 311.1 89.8001 311.1 96.4001C311.1 97.1001 311.7 97.1001 312.1 97.1001Z" fill="#010101"/>
<path d="M336.9 116.4L336.5 116.8L335.2 125.2C335 126.3 335.1 129.5 333 129.5C332 129.5 331.4 127.6 331.4 126.8C339.2 72.6 339.2 72.5 339.2 72.5C339.6 71.1 340.1 69 342 69C342.8 69 343.9 69.4 344.3 70.1L344.9 71.7C349.2 88.8 351.3 106.4 353.3 124L353.7 128.9C353.7 129 353.6 129 353.6 129.1C353.1 130.5 352.8 131.1 351.4 131.1H351.2C350.8 131.1 350 131.1 349.9 130.6L348 116.4H336.9ZM338 111.8L347.3 112L342.3 77.1L338 111.8Z" fill="#010101"/>
</g>
<defs>
<clipPath id="clip0_55_2">
<rect width="353.6" height="133.4" fill="white"/>
</clipPath>
</defs>
</svg>
