<svg width="479" height="403" viewBox="0 0 479 403" fill="none" xmlns="http://www.w3.org/2000/svg">
<g clip-path="url(#clip0_67_359)">
<path d="M345.313 160.035C346.7 161.145 347.254 162.531 347.254 164.195C347.254 165.86 346.7 167.246 345.313 168.356C343.926 169.465 342.262 170.02 340.32 170.02V171.684H338.379V170.02C336.16 169.743 334.496 169.188 333.386 168.356C331.999 167.246 331.445 165.86 331.445 164.195C331.445 162.531 331.999 161.145 333.386 160.035C334.773 158.926 336.437 158.371 338.379 158.371V156.707H340.32V158.371C342.262 158.648 344.203 159.203 345.313 160.035ZM333.386 164.195C333.386 165.305 333.941 166.414 334.773 166.969C335.605 167.524 336.992 168.078 338.379 168.078V160.035C336.715 160.035 335.605 160.59 334.773 161.144C333.664 161.977 333.386 163.086 333.386 164.195ZM340.32 168.356C341.984 168.356 343.094 167.801 343.926 167.246C344.758 166.692 345.313 165.582 345.313 164.473C345.313 163.363 344.758 162.254 343.926 161.699C343.094 161.144 341.707 160.59 340.32 160.59V168.356Z" fill="white"/>
<path d="M365.837 169.743C364.45 171.129 362.509 171.961 360.29 171.961C358.071 171.961 356.407 171.129 354.743 169.743C353.356 168.356 352.524 166.414 352.524 164.195C352.524 161.977 353.356 160.312 354.743 158.648C356.13 157.262 358.071 156.429 360.29 156.429C362.509 156.429 364.173 157.262 365.837 158.648C367.224 160.035 368.056 161.977 368.056 164.195C368.056 166.414 367.501 168.078 365.837 169.743ZM356.407 168.356C357.516 169.465 358.903 170.02 360.567 170.02C362.232 170.02 363.618 169.465 364.728 168.356C365.837 167.246 366.392 165.86 366.392 164.195C366.392 162.531 365.837 161.145 364.728 160.035C363.618 158.926 362.232 158.371 360.567 158.371C358.903 158.371 357.516 158.926 356.407 160.035C355.298 161.145 354.743 162.531 354.743 164.195C354.743 165.86 355.298 167.246 356.407 168.356Z" fill="white"/>
<path d="M383.866 156.707H385.807V171.407H383.866V164.75H376.654V171.407H374.713V156.707H376.654V163.086H383.866V156.707Z" fill="white"/>
<path d="M403.836 169.743H405.5V174.458H403.558V171.684H393.851V174.458H391.909V169.743H393.296C394.128 168.633 394.683 166.969 394.683 164.473V156.707H404.113V169.743H403.836ZM395.237 169.743H401.894V158.648H396.347V164.473C396.347 166.692 396.069 168.633 395.237 169.743Z" fill="white"/>
<path d="M343.094 195.814H344.758V200.529H342.816V197.756H333.109V200.529H331.167V195.814H332.554C333.386 194.705 333.941 193.041 333.941 190.544V182.778H343.371V195.814H343.094ZM334.496 195.814H341.152V184.72H335.605V190.544C335.605 192.763 335.328 194.427 334.496 195.814Z" fill="white"/>
<path d="M363.341 195.537C361.954 196.924 360.013 197.756 357.794 197.756C355.575 197.756 353.911 196.924 352.247 195.537C350.86 194.15 350.028 192.208 350.028 189.99C350.028 187.771 350.86 186.107 352.247 184.442C353.633 183.056 355.575 182.224 357.794 182.224C360.013 182.224 361.677 183.056 363.341 184.442C364.728 185.829 365.56 187.771 365.56 189.99C365.56 192.208 364.728 194.15 363.341 195.537ZM353.911 194.427C355.02 195.537 356.407 196.091 358.071 196.091C359.735 196.091 361.122 195.537 362.232 194.427C363.341 193.318 363.896 191.931 363.896 190.267C363.896 188.603 363.341 187.216 362.232 186.107C361.122 184.997 359.735 184.442 358.071 184.442C356.407 184.442 355.02 184.997 353.911 186.107C352.801 187.216 352.247 188.603 352.247 190.267C352.247 191.931 352.801 193.318 353.911 194.427Z" fill="white"/>
<path d="M382.756 182.778V197.478H380.815V184.442H374.158V197.478H372.216V182.778H382.756Z" fill="white"/>
<path d="M402.449 195.537C401.062 196.924 399.12 197.756 396.902 197.756C394.683 197.756 393.019 196.924 391.354 195.537C389.968 194.15 389.135 192.208 389.135 189.99C389.135 187.771 389.968 186.107 391.354 184.442C392.741 183.056 394.683 182.224 396.902 182.224C399.12 182.224 400.785 183.056 402.449 184.442C403.836 185.829 404.668 187.771 404.668 189.99C404.668 192.208 403.836 194.15 402.449 195.537ZM393.019 194.427C394.128 195.537 395.515 196.091 397.179 196.091C398.843 196.091 400.23 195.537 401.339 194.427C402.449 193.318 403.003 191.931 403.003 190.267C403.003 188.603 402.449 187.216 401.339 186.107C400.23 184.997 398.843 184.442 397.179 184.442C395.515 184.442 394.128 184.997 393.019 186.107C391.909 187.216 391.354 188.603 391.354 190.267C391.354 191.931 391.909 193.318 393.019 194.427Z" fill="white"/>
<path d="M424.915 182.778V197.478H422.973V185.829L418.258 193.873H417.981L413.266 185.829V197.478H411.324V182.778H413.543L418.258 190.544L422.973 182.778H424.915Z" fill="white"/>
<path d="M444.607 195.537C443.221 196.924 441.279 197.756 439.06 197.756C436.841 197.756 435.177 196.924 433.513 195.537C432.126 194.15 431.294 192.208 431.294 189.99C431.294 187.771 432.126 186.107 433.513 184.442C434.9 183.056 436.841 182.224 439.06 182.224C441.279 182.224 442.943 183.056 444.607 184.442C445.994 185.829 446.826 187.771 446.826 189.99C446.826 192.208 446.272 194.15 444.607 195.537ZM435.177 194.427C436.287 195.537 437.673 196.091 439.338 196.091C441.002 196.091 442.388 195.537 443.498 194.427C444.607 193.318 445.162 191.931 445.162 190.267C445.162 188.603 444.607 187.216 443.498 186.107C442.388 184.997 441.002 184.442 439.338 184.442C437.673 184.442 436.287 184.997 435.177 186.107C434.068 187.216 433.513 188.603 433.513 190.267C433.513 191.931 434.068 193.318 435.177 194.427Z" fill="white"/>
<path d="M461.804 182.778V184.72H455.424V197.756H453.483V183.056H461.804V182.778Z" fill="white"/>
<path d="M477.058 197.478V186.384L469.57 197.478H467.906V182.778H469.847V193.873L477.336 182.778H479V197.478H477.058Z" fill="white"/>
<path d="M343.094 221.608H344.758V226.323H342.816V223.55H333.109V226.323H331.167V221.608H332.554C333.386 220.499 333.941 218.835 333.941 216.339V208.573H343.371V221.608H343.094ZM334.496 221.608H341.152V210.514H335.605V216.339C335.605 218.835 335.328 220.499 334.496 221.608Z" fill="white"/>
<path d="M351.137 208.85H353.079V223.55H351.137V208.85Z" fill="white"/>
<path d="M369.998 208.85V210.791H365.56V223.827H363.618V210.791H359.181V208.85H369.998Z" fill="white"/>
<path d="M385.252 208.85V223.55H383.311V218.003H380.26L376.377 223.55H374.435L378.318 217.725C377.209 217.448 376.377 216.893 375.822 216.061C375.267 215.229 374.713 214.397 374.713 213.288C374.713 211.901 375.268 211.069 376.1 209.959C376.932 209.127 378.041 208.573 379.428 208.573H385.252V208.85ZM379.428 216.061H383.311V210.514H379.428C378.596 210.514 378.041 210.791 377.486 211.346C376.932 211.901 376.654 212.456 376.654 213.288C376.654 214.12 376.932 214.674 377.486 215.229C378.041 215.784 378.596 216.061 379.428 216.061Z" fill="white"/>
<path d="M406.332 208.85V223.55H404.39V211.901L399.675 219.944H399.398L394.683 211.901V223.55H392.741V208.85H394.96L399.675 216.616L404.39 208.85H406.332Z" fill="white"/>
<path d="M250.456 92.9148C250.456 92.9148 250.733 92.6374 250.456 92.9148C249.901 92.9148 249.901 92.9148 250.456 92.9148Z" fill="#B72025"/>
<path d="M271.812 76.5506L272.09 76.2732C272.09 76.5506 271.812 76.5506 271.812 76.5506Z" fill="#B72025"/>
<path d="M383.311 42.713C383.311 42.1583 383.311 41.6036 383.311 41.0489C383.311 19.1376 364.728 0 341.984 0C325.343 0 310.92 10.8169 304.263 24.4074C297.884 10.8169 283.461 0 266.543 0C243.522 0 225.216 19.1376 225.216 41.0489C225.216 41.6036 225.216 42.1583 225.216 42.713C225.216 42.713 224.107 56.0262 233.814 73.777C237.142 72.1129 240.471 71.0034 244.354 70.4487C249.624 69.3393 255.171 68.7846 260.441 68.2299C262.937 67.9525 265.156 67.6752 267.652 67.3978C269.871 67.1204 271.258 66.8431 272.367 66.5657C279.856 64.6242 288.177 64.9016 294.001 70.7261C296.22 72.9449 297.884 75.9959 298.716 78.7694C298.994 79.6015 298.994 80.4336 298.994 80.9883C301.767 81.543 304.541 81.8204 307.314 82.3751C308.146 82.6525 308.979 82.6524 309.811 82.9298C307.314 82.9298 308.146 82.9298 312.03 83.2072C313.139 83.2072 314.248 83.4845 315.358 83.7619C322.014 84.8713 330.058 87.0902 333.386 92.9147C335.605 92.9147 337.824 93.192 340.043 93.7467C344.758 95.1335 348.918 98.4618 351.137 102.9C353.079 100.958 355.02 99.2939 356.962 97.3524C385.807 68.7846 383.311 42.713 383.311 42.713Z" fill="#B72025"/>
<path d="M273.477 74.0545L273.754 73.7771C273.754 73.7771 273.477 73.7771 273.477 74.0545Z" fill="#B72025"/>
<path d="M343.371 110.388C343.371 110.111 343.371 109.833 343.094 109.556C343.094 109.279 342.816 109.001 342.816 108.724C342.816 108.724 342.816 108.447 342.539 108.447C342.816 107.06 342.816 105.673 342.539 104.286C341.984 102.345 341.152 100.958 339.211 100.126C337.824 99.5712 335.882 99.5712 334.496 99.5712C331.999 99.5712 329.781 99.0165 327.284 99.0165C326.73 99.0165 326.175 99.0165 325.343 99.0165C325.343 98.1844 325.343 97.6297 325.343 97.075C325.343 95.6882 325.065 94.024 323.956 92.9146C322.847 91.8052 321.182 91.5278 319.518 91.2505C317.299 90.6957 314.803 90.4184 312.584 90.141C306.76 89.309 300.935 88.1995 295.111 87.3675C292.337 87.0901 289.563 86.5354 287.067 86.258C287.899 85.426 288.454 84.3165 288.731 83.2071C289.563 81.8203 289.841 80.1562 289.286 78.492C288.731 75.9958 287.067 73.2222 284.571 72.3902C282.629 71.8355 280.411 72.3902 278.469 72.9449C276.25 73.4996 273.754 73.777 271.535 74.0543C266.82 74.609 262.105 75.1637 257.39 75.7185C252.952 76.2732 248.514 76.8279 244.076 78.2147C235.201 80.9882 228.267 87.3675 221.056 92.9146C213.567 98.7391 206.078 104.841 198.867 110.665C191.655 116.49 184.167 122.314 177.233 128.694C174.737 130.913 172.518 133.686 169.744 135.35C166.693 137.292 162.81 137.014 159.204 137.014C155.044 137.014 150.606 136.737 146.446 137.014C141.731 137.292 137.016 137.292 132.023 137.846C122.316 138.401 112.885 139.233 103.178 140.343C98.4627 140.897 93.7476 141.452 88.7551 142.007C84.5947 142.562 80.1569 142.839 76.2739 144.226C72.3909 145.612 68.5078 147.554 65.7342 150.882C62.9606 154.211 61.0191 158.094 59.6323 161.977C56.8587 169.743 60.4644 177.509 61.5738 185.829C62.6833 193.873 62.4059 201.639 68.2305 207.186C71.2814 209.959 74.6097 212.456 78.2154 214.674C82.3758 217.171 86.2588 217.725 90.974 217.171C94.857 216.616 98.74 215.229 102.623 214.397C107.338 213.288 111.776 212.456 116.491 211.623C125.644 209.682 135.074 208.295 144.504 206.908C148.942 206.354 153.38 205.522 158.095 205.244C160.036 204.967 161.978 204.967 163.642 205.799C165.584 206.354 167.248 207.463 169.189 208.295C177.233 212.178 185.831 214.674 194.984 215.229C203.859 216.061 212.457 214.674 221.056 213.288C229.376 211.901 237.42 209.682 245.186 206.631C253.784 203.303 261.55 198.865 269.871 194.705C273.754 192.763 277.637 190.822 281.52 189.158C286.512 189.158 291.228 186.661 295.665 184.165C298.994 182.501 301.49 180.005 300.658 175.844C300.103 172.239 297.884 168.633 294.279 167.801C289.563 164.473 283.739 163.641 278.192 164.195C271.812 165.027 265.988 167.524 260.163 170.02C254.893 172.516 249.624 175.012 244.076 176.399C243.522 176.676 242.69 176.676 242.135 176.676C242.412 176.399 242.967 176.122 243.244 175.844C249.346 171.684 255.171 167.524 261.273 163.363C267.097 159.203 272.644 155.043 278.746 151.16C284.016 147.831 289.563 145.335 295.388 143.116C301.213 141.175 307.037 139.511 312.862 137.569C319.518 135.35 326.175 132.577 331.722 128.694C334.218 127.03 336.437 125.088 338.379 122.869C339.488 121.76 340.598 120.373 341.152 118.986C341.984 117.599 342.262 115.935 342.262 114.548C343.649 112.607 343.649 111.498 343.371 110.388ZM293.446 175.012L293.169 175.29V175.012H293.446ZM294.001 175.29C294.001 175.012 293.724 175.012 294.001 175.29C294.279 175.012 294.279 175.012 294.001 175.29ZM293.724 175.012C294.001 175.012 293.724 175.012 293.724 175.012C293.446 175.012 293.446 175.012 293.169 175.012C293.446 174.735 293.446 174.735 293.724 175.012ZM292.06 174.18C292.06 174.18 292.06 173.903 291.782 173.903C292.06 173.903 292.06 174.18 292.06 174.18ZM335.05 113.994C335.05 114.271 335.05 113.994 335.05 113.994C334.496 115.103 333.664 115.935 332.832 116.767C331.999 117.877 330.89 118.709 329.781 119.541C329.503 119.818 328.394 120.65 328.948 120.373C328.394 120.928 327.839 121.205 327.284 121.76C322.014 125.088 316.19 127.584 310.365 129.526C304.263 131.467 298.162 133.131 292.337 135.073C285.958 137.292 279.856 140.343 274.031 144.226C261.55 152.546 249.346 161.422 237.142 170.02C234.092 172.239 229.654 174.735 230.763 179.45C231.595 182.778 234.924 184.442 238.252 184.72C241.303 184.997 244.631 184.442 247.682 183.61C251.01 182.778 254.061 181.669 257.112 180.282C263.214 177.509 269.316 174.18 275.973 172.516C279.024 171.684 282.075 171.407 285.126 171.961C286.512 172.239 287.899 172.516 289.286 173.348C289.841 173.626 290.396 174.18 290.95 174.458C291.505 175.012 292.06 175.29 292.892 175.567C292.892 175.567 292.892 175.567 293.169 175.567C293.169 175.844 293.446 175.844 293.446 176.122C292.614 176.676 291.505 177.231 290.673 177.786C289.563 178.341 287.622 179.173 287.067 179.45C286.235 179.727 285.68 180.005 284.848 180.282C284.571 180.282 284.294 180.559 283.739 180.559C283.739 180.559 283.184 180.559 282.907 180.559C282.907 180.559 282.629 180.559 282.352 180.559C281.52 180.559 280.965 180.559 280.133 180.837C279.024 181.114 277.914 181.669 276.805 182.224C274.586 183.056 272.367 184.165 270.426 185.275C266.265 187.216 262.382 189.435 258.222 191.376C250.456 195.259 242.967 198.865 234.646 201.361C226.603 203.58 218.559 205.244 210.239 206.354C201.918 207.463 193.32 206.908 185.276 204.412C181.116 203.303 177.51 201.916 173.627 199.974C169.467 198.033 165.584 196.091 160.869 196.369C156.153 196.369 151.438 197.478 146.723 198.033C142.285 198.588 137.57 199.42 133.133 200.252C123.702 201.916 114.55 203.58 105.119 205.522C100.959 206.354 96.7985 207.74 92.6381 208.573C90.974 208.85 89.3098 209.405 87.6456 209.127C85.9815 208.85 84.5947 208.018 82.9305 207.186C76.8286 203.58 71.0041 198.588 68.2305 191.931C65.4569 184.997 65.7342 177.231 67.3984 170.02C69.0625 163.363 71.5588 155.597 78.7701 153.101C82.3758 151.714 86.2588 151.437 90.1419 150.882C94.857 150.328 99.5721 149.773 104.01 149.218C113.44 148.109 122.87 147.554 132.301 146.722C137.016 146.445 141.731 146.167 146.723 145.89C151.161 145.612 155.599 145.89 160.036 145.89C164.474 145.89 169.189 145.89 173.35 143.948C176.955 142.284 179.452 139.511 182.225 137.014C188.605 130.913 195.816 125.643 202.473 120.096C209.961 113.994 217.173 108.169 224.661 102.067C228.267 99.0165 231.873 96.2429 235.756 93.4693C238.807 90.9731 242.135 88.4769 246.018 87.3675C249.901 85.9807 254.061 85.1486 258.222 84.5939C262.937 84.0392 267.375 83.4845 272.09 82.9297C274.586 82.6524 276.805 82.375 279.301 82.0977C280.133 81.8203 281.243 81.8203 282.075 81.543L281.797 81.8203C281.52 82.0977 281.243 82.0977 281.243 82.375C281.243 82.375 280.965 82.375 280.965 82.6524C280.688 82.9297 280.411 82.9297 280.133 83.2071C279.578 83.4845 279.024 83.7618 278.469 84.0392C277.914 84.3165 277.36 84.5939 276.805 84.8712C276.528 84.8712 276.528 85.1486 276.25 85.1486C275.973 85.426 275.973 85.426 275.973 85.1486C274.309 85.9807 273.199 87.0901 273.199 89.0316C273.199 90.6957 274.586 92.6372 276.25 92.9146C284.294 94.3014 292.06 95.4108 300.103 96.5202C303.986 97.075 308.147 98.1844 312.307 98.4617C313.416 98.4617 314.526 98.7391 315.913 99.0165C313.139 100.958 313.416 105.673 317.022 106.505C319.518 107.06 321.737 107.337 324.233 107.615C324.788 107.615 325.62 107.892 326.175 107.892C326.175 107.892 327.007 107.892 327.284 107.892C328.116 107.892 328.948 107.892 329.781 107.892C331.167 107.892 332.554 108.169 334.218 108.447H334.496C331.445 109.833 332.832 112.884 335.05 113.994ZM238.252 176.122C237.975 176.122 237.975 176.122 238.252 176.122C237.975 175.844 237.975 176.122 238.252 176.122Z" fill="white"/>
<path d="M304.541 113.162C299.548 112.607 294.833 111.775 289.841 111.497C287.345 111.22 284.848 111.22 282.352 112.052C279.856 112.884 277.637 113.994 275.418 115.38C266.82 120.373 258.499 125.643 250.178 130.912C249.069 131.467 248.237 132.299 247.96 133.686V133.963V134.241C247.96 134.518 247.96 134.518 247.96 134.795V135.073V135.35V135.627C247.96 135.905 248.237 136.182 248.237 136.46L248.514 136.737C248.514 136.737 248.514 136.737 248.514 137.014C248.792 137.292 249.069 137.569 249.624 137.846C250.733 138.401 251.843 138.678 252.952 138.124C254.061 137.846 255.448 137.569 256.558 137.292C256.835 137.292 257.112 137.292 257.39 137.292C258.222 137.014 258.777 137.014 259.609 136.737C259.609 136.737 259.609 136.737 259.886 136.737C260.718 136.46 261.273 136.182 262.105 136.182C262.66 136.182 262.937 135.905 263.214 135.627C265.988 134.518 268.761 133.409 271.535 132.022C276.805 129.526 282.075 127.307 287.899 125.643C293.724 123.978 299.548 122.592 305.373 121.482C307.314 121.205 308.701 118.709 308.424 117.045C308.147 114.548 306.482 113.439 304.541 113.162Z" fill="white"/>
<path d="M251.288 197.756C263.769 191.654 275.973 184.442 289.286 180.282C292.06 179.45 295.665 177.786 295.943 174.458C295.943 172.516 294.556 170.852 292.892 169.465C287.067 165.305 279.301 165.582 272.644 167.801C260.995 171.684 251.842 178.895 239.084 179.173C237.142 179.173 234.091 178.063 234.646 176.122C234.924 175.29 235.478 174.735 236.31 174.18C247.405 166.414 258.777 158.371 269.871 150.605C274.309 147.554 278.469 144.503 283.184 142.007C298.439 134.241 316.19 133.131 330.335 123.146C332.832 121.205 337.547 117.322 338.656 113.994C339.211 112.33 338.656 109.833 336.992 109.279C336.715 109.279 336.16 109.001 335.882 109.279C336.992 108.169 337.547 106.782 336.715 105.396C335.605 103.731 333.386 103.454 331.722 103.177C326.73 102.345 321.737 102.067 316.745 100.958C317.577 100.403 318.686 99.5711 319.241 98.7391C319.518 97.907 319.518 96.7976 318.964 96.5202C318.686 96.2428 319.796 94.8561 319.518 94.8561C305.65 91.5278 290.118 89.8636 275.973 87.3674C278.469 86.258 288.454 81.8203 283.739 77.6599C281.797 75.9958 279.024 76.2731 276.528 76.5505C270.703 77.3826 264.601 77.9373 258.777 78.7693C252.952 79.6014 246.85 80.4335 241.303 82.9297C237.142 84.8712 233.537 87.6448 230.208 90.4183C219.114 99.0164 208.297 107.892 197.48 116.767C191.933 121.205 186.386 125.92 180.838 130.358C176.955 133.686 173.35 138.679 168.08 139.788C161.978 141.175 154.767 140.065 148.387 140.343C141.453 140.62 134.797 140.897 127.863 141.452C113.995 142.284 100.127 143.671 86.2588 145.612C80.989 146.444 75.4418 147.277 71.2814 150.605C67.121 153.933 64.9022 159.203 63.238 164.195C60.187 174.735 59.9097 187.216 65.7342 196.369C69.6173 202.471 75.9965 207.186 81.8211 210.514C87.923 214.12 94.857 210.514 101.236 209.127C119.265 205.244 137.57 201.916 155.876 199.697C158.372 199.42 160.869 199.142 163.365 199.697C166.138 200.252 168.635 201.639 171.131 202.748C183.612 208.85 197.48 211.069 211.071 209.127C225.493 206.908 238.252 204.412 251.288 197.756ZM284.294 115.103C286.235 114.826 288.177 114.826 290.118 115.103C294.833 115.658 299.548 116.213 304.263 116.767C293.724 118.986 283.462 121.205 273.754 125.92C270.148 127.584 266.543 129.526 262.937 131.19C259.331 132.577 255.726 133.409 251.843 134.241C260.163 128.971 268.761 123.701 277.082 118.431C279.301 117.045 281.797 115.658 284.294 115.103Z" fill="#FAB388"/>
<path d="M276.527 87.9223C267.652 88.1996 258.499 89.8638 251.565 95.6883C244.354 101.235 236.588 105.95 227.712 108.724V108.447C235.478 103.732 242.967 99.2939 250.456 94.3015C254.061 91.8053 258.222 89.3091 262.937 88.477C267.375 88.1996 272.367 86.8128 276.527 87.9223Z" fill="#010101"/>
<path d="M316.745 101.235C309.256 100.958 292.06 99.2938 284.848 99.2938C266.82 100.403 253.229 116.213 235.201 117.322V117.045C242.135 115.658 248.514 112.33 254.616 108.724C263.769 103.454 274.031 98.4617 284.848 97.907C292.06 98.1843 309.256 100.403 316.745 101.235C316.745 100.958 316.745 101.235 316.745 101.235Z" fill="#010101"/>
<path d="M247.127 135.35C253.784 133.409 260.441 132.022 266.543 128.971C272.644 126.197 278.746 122.869 285.403 120.65C298.716 116.49 312.307 114.548 325.897 113.162C312.584 115.935 298.994 117.877 285.68 121.482C279.024 123.424 272.922 126.475 266.82 129.248C260.718 132.577 253.507 134.241 247.127 135.35Z" fill="#010101"/>
<path d="M278.469 180.837C277.914 179.173 278.469 177.231 279.856 175.845C280.965 174.458 282.629 173.626 284.294 173.071C287.345 171.684 290.673 170.297 294.001 170.297C294.279 170.297 294.556 170.297 294.833 170.575C295.111 170.852 295.388 171.129 295.665 171.407C295.943 171.961 296.497 172.794 296.775 173.626C297.052 174.458 297.607 175.567 297.052 176.677C296.775 177.509 295.943 178.063 295.111 178.341C291.505 180.282 280.688 187.216 278.469 180.837Z" fill="#B72025"/>
<path d="M307.869 95.4109C308.424 92.36 311.752 93.1921 313.416 93.4694C316.467 94.0242 318.131 94.3015 321.182 94.8562C321.46 94.8562 321.46 95.4109 321.46 95.6883C321.46 96.243 321.182 98.7392 321.182 99.0166C320.905 100.126 320.073 100.681 316.745 100.126C314.248 99.8487 309.256 98.7392 308.147 97.6298C307.869 97.6298 307.592 96.243 307.869 95.4109Z" fill="#C18680"/>
<path d="M327.284 108.724C329.503 109.279 336.437 107.892 338.101 107.337C339.211 107.06 338.933 104.841 338.379 103.454C338.101 102.899 336.715 102.899 335.882 102.899C333.664 102.899 332.832 102.622 330.89 102.622C329.503 102.345 325.343 102.067 324.233 102.899C321.737 104.564 324.233 107.337 325.898 108.447C326.175 108.447 326.73 108.724 327.284 108.724Z" fill="#B72025"/>
<path d="M284.294 80.9883C282.629 81.543 274.031 83.7619 272.367 83.4845C272.09 83.4845 271.258 83.2072 270.98 82.9298C270.703 82.3751 270.426 82.0977 270.148 81.2657C269.871 80.4336 269.871 79.6015 269.594 78.7694C269.594 78.4921 269.594 78.4921 269.594 78.2147C269.594 77.9374 269.871 77.9374 270.148 77.9374C273.754 77.1053 277.36 76.5506 280.965 75.7185C281.797 75.4412 283.184 74.8864 283.739 75.7185C285.958 78.4921 285.958 80.4336 284.294 80.9883Z" fill="#B72025"/>
<path d="M338.656 112.884C339.488 112.052 339.766 111.498 339.211 110.111C338.933 109.556 338.656 108.724 338.101 108.724C337.547 108.724 336.992 109.001 336.16 109.279C333.664 110.388 321.737 113.717 324.233 118.154C326.73 123.147 336.437 115.103 338.656 112.884Z" fill="#B72025"/>
<path d="M315.635 97.0751C315.913 97.0751 316.745 96.7977 317.022 96.5204C317.299 96.243 317.299 95.6883 317.299 95.1336C317.299 94.8562 316.745 94.5789 316.467 94.5789C316.19 94.5789 315.913 94.5789 315.635 94.5789C314.803 94.8562 313.971 95.4109 313.139 95.9656C312.862 95.9656 312.862 96.243 312.862 96.243C312.862 96.5204 312.862 96.7977 312.862 96.7977C312.862 97.0751 313.139 97.3524 313.139 97.3524C313.971 98.1845 313.971 98.1845 315.08 99.0166C315.08 99.0166 315.635 99.2939 315.913 99.2939C316.19 99.2939 316.467 99.0166 316.745 99.0166C317.022 98.4619 317.022 97.9071 316.467 97.3524C316.19 97.3524 315.913 97.3524 315.635 97.0751Z" fill="#771214"/>
<path d="M120.374 220.222L160.314 209.405C160.314 209.405 161.701 160.867 145.891 130.081L105.951 138.956L120.374 220.222Z" fill="#2B348E"/>
<path d="M152.548 142.839C162.533 172.516 161.701 209.127 161.701 209.405C161.701 209.96 161.423 210.514 160.869 210.792L120.929 221.609C120.651 221.609 120.097 221.609 119.819 221.331C119.542 221.054 119.265 220.776 119.265 220.499L104.842 139.233C104.842 138.401 105.119 137.847 105.951 137.569L145.891 128.694C146.446 128.694 147.001 128.971 147.278 129.249C148.942 133.409 150.884 137.847 152.548 142.839ZM158.927 208.295C158.927 202.193 158.927 170.02 150.052 143.671C148.665 139.233 147.001 135.35 145.059 131.467L107.338 139.788L121.483 218.558L158.927 208.295Z" fill="#161616"/>
<path d="M117.323 203.58L159.759 192.486C159.759 191.654 159.759 190.822 159.482 189.712L116.768 200.807L117.323 203.58Z" fill="#161616"/>
<path d="M116.214 196.924L159.204 185.829C159.204 184.997 158.927 184.165 158.927 183.056L115.659 194.15L116.214 196.924Z" fill="#161616"/>
<path d="M115.104 190.544L158.65 179.45C158.65 178.618 158.372 177.786 158.372 176.677L114.549 187.771L115.104 190.544Z" fill="#161616"/>
<path d="M113.995 184.165L158.095 173.348C158.095 172.516 157.818 171.684 157.818 170.575L113.717 181.392L113.995 184.165Z" fill="#161616"/>
<path d="M112.885 177.786L156.986 166.969C156.708 166.137 156.708 165.305 156.431 164.196L112.331 175.012L112.885 177.786Z" fill="#161616"/>
<path d="M111.776 171.407L155.876 160.867C155.599 159.758 155.321 158.926 155.321 158.094L111.221 168.633L111.776 171.407Z" fill="#161616"/>
<path d="M110.389 164.75L154.212 154.488C153.935 153.656 153.657 152.824 153.657 151.992L109.834 162.254L110.389 164.75Z" fill="#161616"/>
<path d="M109.28 158.371L152.825 148.386C152.548 147.554 152.27 146.722 151.993 145.89L108.725 155.875L109.28 158.371Z" fill="#161616"/>
<path d="M117.046 144.226C117.046 144.226 115.104 132.022 90.6966 132.022C80.4343 132.022 65.7342 132.577 47.7058 133.964V252.95C83.7626 242.688 102.9 235.754 102.9 235.754C102.9 235.754 127.308 229.375 127.031 216.061C126.753 216.061 128.417 173.348 117.046 144.226Z" fill="#2B348E"/>
<path opacity="0.4" d="M117.046 144.226C117.046 144.226 115.104 132.022 90.6966 132.022C79.6022 132.022 63.238 132.854 43.2681 134.241V158.094C84.04 151.992 105.397 153.379 107.616 159.203C111.221 168.633 82.6532 198.865 72.9456 206.354C63.238 213.843 96.5211 200.529 107.338 190.822C117.046 182.224 115.659 218.003 66.8437 247.403C90.4192 240.469 102.623 235.754 102.623 235.754C102.623 235.754 127.031 229.375 126.753 216.061C126.753 216.061 128.417 173.348 117.046 144.226Z" fill="#333333"/>
<path d="M119.819 148.109C119.265 146.722 118.71 145.335 118.433 143.948C118.433 143.671 118.433 143.671 118.155 143.116C117.046 140.343 112.331 130.913 90.974 130.635C80.4343 130.635 65.4569 131.19 45.7643 132.577V135.35C65.4569 133.964 80.4343 133.409 90.974 133.409C110.666 133.409 115.104 141.452 115.936 143.948C115.936 144.226 115.936 144.503 115.936 144.503V144.78C127.031 173.071 125.644 215.507 125.644 216.061C126.199 228.265 102.9 234.367 102.623 234.367C102.346 234.367 82.3758 241.855 45.7643 252.118V254.891C82.9305 244.352 102.9 237.14 103.178 237.14C104.287 236.863 128.695 230.484 128.14 216.061C128.14 215.784 129.25 176.677 119.819 148.109Z" fill="#161616"/>
<path d="M1.94152 316.187C2.49624 289.284 4.71511 270.146 9.15287 270.146C9.43023 270.146 9.70758 270.146 9.70758 270.423C10.5397 271.255 14.4227 271.81 15.2548 275.97C18.3057 288.174 22.7435 310.363 32.7284 324.231C33.8379 323.121 40.2171 312.304 43.5455 306.202L44.3775 304.816C50.4794 293.721 54.6398 285.678 58.8002 274.861C59.9097 272.92 61.0191 271.81 63.5153 271.81C65.7342 272.087 67.121 272.642 69.0625 274.306C67.9531 311.195 68.5078 348.361 67.6757 385.527L67.3984 393.57C66.5663 395.511 64.6248 397.453 62.1285 397.453C60.7417 397.453 59.0776 396.066 58.2455 395.234L58.5229 385.527C59.0776 355.295 57.9681 325.063 59.0776 295.108C55.1945 302.319 51.0342 309.531 47.7058 317.019C46.319 319.516 39.3851 333.106 37.9983 336.434C36.8888 338.653 32.4511 343.646 29.9548 338.099C13.3133 300.378 12.7585 300.378 12.4812 300.378C8.87551 330.61 8.59815 361.397 8.04343 391.906C7.76607 393.847 6.10191 394.957 4.43775 394.957C3.32832 394.957 0.55472 393.847 -0.277359 392.738L1.94152 316.187Z" fill="white"/>
<path d="M98.4627 365.28L97.3532 366.389L94.5796 385.249C94.3023 387.745 94.3023 394.957 89.5871 394.957C87.3683 394.957 85.9815 390.519 85.9815 388.855C103.455 267.927 103.455 267.65 103.455 267.65C104.287 264.599 105.397 259.884 109.557 259.884C111.499 259.884 113.717 260.716 114.827 262.38L116.214 265.986C125.921 304.261 130.359 343.368 134.797 382.753L135.906 393.57C135.906 393.847 135.629 393.847 135.629 393.847C134.519 396.898 133.687 398.285 130.636 398.285H130.082C128.972 398.285 127.308 398.285 127.308 397.176L123.148 365.557H98.4627V365.28ZM100.959 354.74L121.761 355.295L110.666 277.357L100.959 354.74Z" fill="white"/>
<path d="M206.633 295.108L188.605 339.485C188.327 342.814 180.561 343.091 179.174 341.704C178.897 341.427 178.065 340.317 178.065 339.763C173.627 325.895 170.021 312.027 164.474 298.159C161.701 329.5 165.029 361.396 161.146 392.738C159.204 393.847 158.095 393.847 155.876 393.847C152.27 393.847 152.548 393.015 152.548 389.964C152.548 384.694 153.935 381.089 153.657 275.97C153.657 270.978 161.423 267.095 163.365 272.642L183.612 328.391C188.327 322.844 203.027 275.97 206.633 269.869C208.297 266.54 211.903 267.095 216.063 269.869C216.34 269.869 217.173 324.785 217.173 348.361C217.45 363.061 218.282 378.593 218.282 393.57C218.282 396.621 216.34 399.117 213.012 399.117C210.239 399.117 209.684 398.562 208.574 395.789C209.406 362.229 208.297 328.668 206.633 295.108Z" fill="white"/>
<path d="M247.682 365.28L246.573 366.389L243.799 385.249C243.522 387.745 243.522 394.957 238.807 394.957C236.588 394.957 235.201 390.519 235.201 388.855C252.675 267.927 252.675 267.65 252.675 267.65C253.507 264.599 254.616 259.884 258.777 259.884C260.718 259.884 262.937 260.716 264.046 262.38L265.433 265.986C275.141 304.261 279.578 343.368 284.016 382.753L285.126 393.57C285.126 393.847 284.848 393.847 284.848 393.847C283.739 396.898 282.907 398.285 279.856 398.285H279.301C278.192 398.285 276.528 398.285 276.528 397.176L272.367 365.557H247.682V365.28ZM250.178 354.74L270.98 355.295L259.886 277.357L250.178 354.74Z" fill="white"/>
<path d="M348.641 276.525L355.852 378.315C356.13 381.366 356.684 384.14 356.684 387.191C356.407 389.964 353.911 390.796 351.137 390.796C347.532 390.796 346.7 387.745 346.422 384.417L342.262 311.195C341.43 299.269 339.488 287.065 340.043 275.138C340.043 270.978 348.364 272.642 348.641 276.525Z" fill="white"/>
<path d="M373.603 386.636C373.603 349.193 374.99 311.195 375.822 273.752C376.1 265.986 378.873 265.986 385.53 265.986H387.194C402.449 265.986 412.434 275.97 412.434 290.67V292.612C412.434 304.816 409.383 318.961 398.288 326.449C399.121 327.282 403.004 331.719 403.558 332.829C411.047 342.536 409.105 366.389 409.938 378.038C409.938 379.147 411.047 386.636 411.047 387.745V389.132C411.047 391.906 408.273 392.183 406.332 392.183H406.054C404.113 392.183 402.171 392.183 401.339 389.964C401.062 384.417 399.675 358.9 399.398 353.353C398.843 345.31 397.179 333.938 386.917 333.938H384.143C383.866 335.325 383.034 341.981 383.034 343.646C382.756 345.032 381.924 382.198 381.924 396.343C381.924 399.394 382.479 403 378.318 403C376.377 403 374.435 402.445 373.326 400.781V386.636H373.603ZM386.639 322.289C398.566 322.289 403.004 300.378 403.004 292.889C403.004 285.123 399.398 275.138 389.968 275.138C387.471 275.138 385.807 276.525 385.807 279.576C386.085 293.999 384.698 306.202 384.698 321.18C384.42 322.012 385.53 322.289 386.639 322.289Z" fill="white"/>
<path d="M441.834 365.28L440.724 366.389L437.951 385.249C437.673 387.745 437.673 394.957 432.958 394.957C430.739 394.957 429.353 390.519 429.353 388.855C446.826 267.927 446.826 267.65 446.826 267.65C447.658 264.599 448.768 259.884 452.928 259.884C454.87 259.884 457.089 260.716 458.198 262.38L459.585 265.986C469.292 304.261 473.73 343.368 478.168 382.753L479.277 393.57C479.277 393.847 479 393.847 479 393.847C477.891 396.898 477.058 398.285 474.008 398.285H473.453C472.343 398.285 470.679 398.285 470.679 397.176L466.519 365.557H441.834V365.28ZM444.33 354.74L465.132 355.295L454.038 277.357L444.33 354.74Z" fill="white"/>
</g>
<defs>
<clipPath id="clip0_67_359">
<rect width="479" height="403" fill="white"/>
</clipPath>
</defs>
</svg>
